<?xml version="1.0" encoding="utf-8"?>
<!-- Generator: Adobe Illustrator 27.0.0, SVG Export Plug-In . SVG Version: 6.00 Build 0)  -->
<svg version="1.1" id="Warstwa_1" xmlns="http://www.w3.org/2000/svg" xmlns:xlink="http://www.w3.org/1999/xlink" x="0px" y="0px"
	 viewBox="0 0 500 191" style="enable-background:new 0 0 500 191;" xml:space="preserve">
<style type="text/css">
	.st0{clip-path:url(#SVGID_00000036238408504259546190000016735654634294187684_);}
	.st1{fill:#E58D05;}
	.st2{fill:#FFFFFF;}
</style>
<g>
	<defs>
		<rect id="SVGID_1_" x="189.9" y="8.2" width="113.8" height="71.4"/>
	</defs>
	<clipPath id="SVGID_00000150086111222392283110000018313519282566289049_">
		<use xlink:href="#SVGID_1_"  style="overflow:visible;"/>
	</clipPath>
	<g style="clip-path:url(#SVGID_00000150086111222392283110000018313519282566289049_);">
		<path class="st1" d="M255.1,14.1c0.1-0.2,0-0.5,0.2-0.6c0.1,0.2,0.1,0.4,0.2,0.7c0,0-0.1,0-0.1-0.1
			C255.3,14.1,255.2,14.1,255.1,14.1z M247.6,21.8C247.6,21.8,247.6,21.8,247.6,21.8L247.6,21.8C247.6,21.8,247.6,21.8,247.6,21.8z
			 M252.1,10.1c-0.1,0-0.2-0.1-0.2-0.1C251.9,10.1,251.9,10.2,252.1,10.1C252,10.2,252.1,10.2,252.1,10.1z M303.5,44l-4.1,3.6
			l-1.9-0.4c0,0-5.6,7.6-13.2,7.7l-9.3,1.7c0,0-4.4,8.5-11.8,10.5c0,0-0.6,4.9-3.4,6l-1.5,6.5h-23.1l-0.7-2.7c0,0,0,0,0.1,0
			c0,0,0,0,0.1,0c0,0,0,0,0-0.1c0,0,0,0-0.1,0c0,0,0,0,0,0l-0.9-3.8c-2.9-1.1-3.4-6-3.4-6c-7.4-2-11.8-10.5-11.8-10.5l-9.3-1.7
			c-7.6-0.2-13.2-7.7-13.2-7.7l-1.9,0.4l-4.1-3.6l2.3-9.3c0.8-10.7,10.9-22.2,14-25.5c0,0,0,0,0,0c0,0,0,0,0.1,0c0,0,0,0,0,0
			c0.5-0.6,0.9-0.9,0.9-0.9l1.3,0.2c-0.1,0.1-0.2,0.1-0.3,0.1c0,0,0,0,0,0l0,0c0,0,0,0,0,0c-0.1,0.2,0,0.4,0.1,0.5
			c-0.1,0-0.2-0.1-0.3-0.1c0,0-0.1,0-0.1,0c0,0.1,0,0.1,0,0.1c0.1,0,0.2,0,0.3,0h0c0.1-0.1,0.2-0.1,0.3-0.1c0.1,0,0.2-0.1,0.2-0.2
			c0-0.1,0-0.2,0-0.3c0.1,0,0.2,0,0.2,0c0,0,0.1,0,0.1,0l0.8,0.1c-0.1,0-0.1,0.1-0.2,0.1c0,0,0,0,0,0l0,0l0,0c0,0,0,0,0,0
			c0.3,0.1,0.4,0.1,0.7,0l0.7,0.1c0,0,0,0,0,0c0,0.1,0.1,0.1,0.2,0l0.2,0c0.1,0,0.1,0.1,0.2,0.2c0,0,0.1,0,0.1-0.1c0,0,0,0,0-0.1
			c0,0,0,0,0,0l5.4,0.9l-1.1,5l-3.3,1.3l-0.6-0.3c0-0.1-0.1-0.1-0.1-0.1c0,0,0,0,0,0l-0.8-0.4c0,0-3.8,3.4-3.7,8
			c0.1,4.6-1,10.6-1,10.6c3.2-1.7,6.9,0.9,6.9,0.9c6.1-2.7,16.9,0.8,16.9,0.8c1.8-1.8,7.3-2,7.3-2l2.9-5.2l-0.7-1.8
			c0,0-1-1.9-1.6-4.8c0,0,0,0,0,0c0,0,0.1,0,0.1-0.1c0,0,0-0.1-0.1-0.2c0,0-0.1,0-0.1,0c-0.3-1.6-0.6-3.4-0.5-5.4c0,0,0.1,0,0.1-0.1
			c0.1-0.1,0-0.2,0-0.1c0,0,0,0,0,0c0.1-3.2,1.5-4.9,3.5-5.9c0,0,0.1,0,0.2,0c0,0,0.1-0.1,0.1-0.1c0.3-0.1,0.7-0.3,1-0.4
			c0.1,0.1,0.2,0.1,0.3,0c0,0,0.1-0.1,0.1-0.1c0.2-0.1,0.4-0.1,0.6-0.1c0,0,0,0,0,0c0.1,0,0.1,0,0.2,0c1-0.2,2.1-0.2,3.1-0.2
			c0.2,0,0.4,0,0.6,0c0,0.1,0.1,0.2,0.1,0.3c0.2,0,0.3,0.1,0.5,0.1c0-0.1,0.1-0.2,0.1-0.3c1.2,0.1,2.4,0.2,3.4,0.6c0,0,0,0,0,0.1
			c0,0.1-0.1,0.1-0.1,0.2c0,0-0.1,0.1-0.2,0.1c-0.3-0.1-0.6,0.1-0.9,0.1c-0.1,0.2-0.1,0.4-0.2,0.5c0,0-0.1,0-0.1,0.1
			c0,0-0.1,0-0.1,0.1c-0.1,0.1-0.1,0.2,0,0.2c0.2,0.2,0.4,0.6,0.4,0.8c0,0.1,0,0.1,0.1,0.1c0.1,0.2,0.2,0.2,0.4,0
			c0.1-0.1,0.2-0.3,0.4-0.3c0.1,0,0.1-0.2,0-0.3c-0.1-0.2-0.1-0.3,0-0.4c0,0,0.1-0.1,0.1-0.1c0.1-0.1,0.2,0,0.3,0
			c0,0.1,0.1,0.2,0.1,0.3c0.1,0.2,0.2,0.3,0.4,0.4c0.1,0.1,0.3,0,0.3-0.1s0.1-0.2,0.1-0.3c0-0.1,0.2-0.1,0.3,0
			c0.1,0,0.1,0.1,0.2,0.2c0.1,0.1,0.2,0,0.2-0.1c0,0,0,0,0-0.1c0-0.2-0.1-0.4-0.1-0.6c0,0,0-0.1,0-0.1c0,0-0.1-0.1-0.1-0.1
			c0,0-0.1,0-0.1,0c-0.1,0-0.2,0-0.2-0.1c0-0.1,0-0.1,0.1-0.2c0,0,0,0,0.1,0c0,0,0,0,0,0c0.8,0.4,1.5,1,2.1,1.8
			c0,0.2-0.1,0.4-0.2,0.6c-0.1,0-0.2,0-0.3,0c-0.1,0-0.1,0-0.2,0.1c-0.2,0.1-0.2,0.2-0.1,0.6c0.1-0.1,0.2-0.1,0.2-0.2
			c0.1-0.2,0.3-0.2,0.5-0.1c0.3,0.1,0.4,0.2,0.2,0.5c-0.1,0.2-0.2,0.4-0.5,0.4c0,0,0,0,0,0.1c0,0.1,0,0.1,0.1,0.1c0.1,0,0.1,0,0.1,0
			c0.1,0,0.2,0.1,0.3,0.1c0.1,0,0.2-0.1,0.4-0.1c0,0,0,0,0.1,0l0,0c0,0,0.1,0,0.1,0c0.1,0.1,0.2,0.2,0.3,0.2
			c0.1,0.5,0.2,1.1,0.2,1.8c0,1.1,0,2.1-0.1,3c0,0,0,0,0,0c0,0.1,0,0.1,0,0.2c-0.2,1.9-0.6,3.6-1,4.8c0,0,0,0,0,0c0,0,0,0,0,0
			c0,0,0,0.1,0,0.1c-0.5,1.5-1,2.5-1,2.5l-0.7,1.8l2.9,5.2c0,0,5.6,0.2,7.3,2c0,0,10.8-3.5,16.9-0.8c0,0,3.7-2.6,6.9-0.9
			c0,0-1.1-6.1-1-10.6c0.1-2.6-1.1-4.8-2.2-6.2c0,0,0.1,0,0.1,0c0-0.1,0-0.1,0-0.2c0,0,0.1-0.1,0-0.1c0,0-0.1-0.1-0.1-0.1
			c0,0,0,0-0.1,0c-0.1,0.1-0.1,0.2-0.1,0.3c-0.8-1-1.4-1.6-1.4-1.6l-1.6,0.8l-3.3-1.3l-1.1-5l3.5-0.6c0,0,0,0,0,0
			c0,0,0.1,0.1,0.1,0.1c0,0,0.1-0.1,0.1-0.1c0,0,0,0,0,0l6.4-1.1c0,0,14,13.8,14.9,26.5l1.6,6.7c0,0,0,0,0,0c0,0,0,0.1,0,0.1
			c0,0,0,0,0,0L303.5,44z M277.7,10.3C277.7,10.3,277.7,10.2,277.7,10.3c-0.1-0.1-0.1-0.1-0.2,0c0,0,0,0.1,0,0.1c0,0,0.1,0,0.1,0.1
			C277.7,10.4,277.7,10.3,277.7,10.3z M279.4,15.2c0,0-0.1,0-0.1,0c0,0,0,0.1,0.1,0.1c0,0,0.1,0,0.1,0
			C279.5,15.2,279.5,15.2,279.4,15.2z M279.7,13.4C279.7,13.4,279.6,13.4,279.7,13.4C279.6,13.4,279.6,13.4,279.7,13.4
			C279.6,13.4,279.7,13.4,279.7,13.4z M280.3,13.1c0,0-0.1,0-0.1,0c0,0.1-0.1,0.2-0.1,0.3c0,0.1,0.1,0.1,0.1,0.2c0,0,0.1,0,0.1,0
			C280.4,13.3,280.4,13.2,280.3,13.1z M281,12.5C281,12.5,281.1,12.4,281,12.5L281,12.5L281,12.5L281,12.5L281,12.5z M281.3,11
			c0,0,0.1,0,0.1-0.1c0,0,0-0.1,0-0.1c-0.1-0.1-0.3-0.2-0.3-0.4c0,0,0,0-0.1,0c-0.1,0-0.1,0-0.2,0c-0.1,0-0.1,0.1-0.1,0.2
			C280.9,10.8,281.1,11,281.3,11z M281.7,13.2c0.2-0.1,0.2-0.3,0.3-0.5c0-0.1,0-0.2-0.1-0.2c0,0-0.1,0-0.1,0
			C281.6,12.8,281.5,13,281.7,13.2C281.7,13.2,281.7,13.2,281.7,13.2C281.7,13.2,281.7,13.2,281.7,13.2c-0.1,0-0.2,0-0.3,0.1
			c0,0,0,0.1,0,0.1s0.1,0.1,0.1,0.1C281.6,13.4,281.6,13.3,281.7,13.2C281.7,13.2,281.7,13.2,281.7,13.2
			C281.7,13.2,281.7,13.2,281.7,13.2z M282.5,13.6C282.5,13.5,282.5,13.5,282.5,13.6c-0.1-0.1-0.2-0.1-0.4-0.2c-0.1,0-0.1,0-0.2,0
			c-0.1,0.1-0.1,0.2,0,0.3C282.1,13.9,282.4,13.9,282.5,13.6C282.5,13.6,282.5,13.6,282.5,13.6z M283.3,13.7c0-0.1-0.1-0.2-0.1-0.3
			c0,0,0,0-0.1,0c0,0,0,0-0.1,0c-0.1,0.1-0.3,0.2-0.3,0.4c0,0.1,0,0.2,0.1,0.3c0.1,0.1,0.2,0,0.4,0C283.3,14,283.3,13.8,283.3,13.7z
			 M283.7,9.3c0,0-0.1,0-0.1-0.1c0,0-0.1,0.1-0.1,0.2c0,0.1,0,0.1,0.1,0.2c0,0,0,0,0.1,0C283.7,9.5,283.8,9.4,283.7,9.3z
			 M284.8,11.9L284.8,11.9L284.8,11.9L284.8,11.9z M285.2,13.8C285.2,13.8,285.2,13.7,285.2,13.8c-0.1,0-0.1,0-0.1,0
			c0,0,0,0.1,0.1,0.1C285.2,13.8,285.2,13.8,285.2,13.8z M286.2,20.9C286.2,20.9,286.2,20.9,286.2,20.9
			C286.2,20.9,286.2,20.9,286.2,20.9L286.2,20.9C286.2,20.9,286.2,20.9,286.2,20.9c-0.1-0.1-0.1-0.1-0.2-0.1c0,0-0.1,0-0.1,0.1
			c0,0,0,0,0.1,0C286.1,20.9,286.1,20.9,286.2,20.9C286.2,20.9,286.2,20.9,286.2,20.9C286.2,20.9,286.2,20.9,286.2,20.9L286.2,20.9
			L286.2,20.9C286.2,20.9,286.2,20.9,286.2,20.9z M286.3,8.5C286.3,8.5,286.3,8.4,286.3,8.5C286.3,8.4,286.3,8.4,286.3,8.5
			C286.2,8.5,286.3,8.5,286.3,8.5z M255.5,18.4C255.4,18.4,255.4,18.4,255.5,18.4C255.4,18.4,255.4,18.5,255.5,18.4
			C255.4,18.5,255.5,18.5,255.5,18.4C255.5,18.4,255.5,18.4,255.5,18.4z M255.3,14.6C255.3,14.6,255.3,14.7,255.3,14.6
			c0.1,0.1,0.1,0.1,0.1,0.1c0,0,0-0.1,0-0.1C255.3,14.5,255.3,14.6,255.3,14.6z M254.6,22.9C254.6,22.9,254.6,22.8,254.6,22.9
			C254.5,22.8,254.5,22.9,254.6,22.9C254.5,22.9,254.5,22.9,254.6,22.9C254.6,22.9,254.6,22.9,254.6,22.9z M255,19.8L255,19.8
			L255,19.8L255,19.8z M254.8,18.6c0,0,0,0.1-0.1,0.1c0,0,0.1,0.1,0.1,0.1c0,0,0-0.1,0.1-0.1C254.9,18.6,254.8,18.5,254.8,18.6z
			 M254.6,14.6C254.6,14.7,254.7,14.7,254.6,14.6c0.1,0,0.1,0,0.1,0C254.7,14.6,254.7,14.6,254.6,14.6
			C254.7,14.6,254.6,14.6,254.6,14.6z M254.7,20.5L254.7,20.5L254.7,20.5L254.7,20.5z M254.5,20C254.5,20,254.5,20.1,254.5,20
			C254.5,20.1,254.6,20.1,254.5,20C254.6,20,254.6,20,254.5,20C254.5,20,254.5,20,254.5,20z M254.4,16.6L254.4,16.6L254.4,16.6
			L254.4,16.6z M254.4,18.4C254.4,18.5,254.4,18.5,254.4,18.4C254.4,18.4,254.4,18.3,254.4,18.4C254.4,18.3,254.4,18.3,254.4,18.4
			C254.3,18.4,254.3,18.4,254.4,18.4z M254.2,19.5c0,0.1,0.1,0.2,0.2,0.1c0,0,0.1,0,0.1-0.1c0-0.1,0-0.2-0.1-0.3c0,0-0.1,0-0.1-0.1
			c0,0-0.1,0-0.1,0C254.2,19.3,254.1,19.4,254.2,19.5z M254.1,21.4c0.1,0.1,0.1,0.1,0.3,0.1c0,0,0.1,0,0.1,0
			c0.1-0.1,0.2-0.3,0.2-0.5c0,0,0,0,0-0.1c-0.2-0.1-0.4,0-0.6,0.1C254,21.2,254,21.3,254.1,21.4z M253.9,15.5
			C253.9,15.5,254,15.5,253.9,15.5c0.1,0,0.1,0,0.1,0C254,15.5,254,15.5,253.9,15.5C254,15.5,253.9,15.5,253.9,15.5
			C253.9,15.5,253.9,15.5,253.9,15.5z M253.8,11.6L253.8,11.6L253.8,11.6L253.8,11.6z M238.9,13.3c0.1,0.4,0.1,0.7,0.2,1.1
			c0,0.1,0.2,0.2,0.3,0.1c0,0,0.1-0.1,0.1-0.1l0,0c0,0,0,0,0,0c0.1-0.1,0.1-0.1,0-0.1c0,0,0,0,0,0l0,0c-0.1-0.3-0.3-0.6-0.3-0.9
			c0-0.1-0.2-0.1-0.2-0.1C238.9,13.3,238.9,13.3,238.9,13.3z M239.4,17.1c-0.1,0-0.2,0-0.2,0.2c0,0,0.1,0.1,0.1,0.1
			c0.1,0,0.1,0,0.2-0.1C239.5,17.2,239.5,17.1,239.4,17.1z M239.6,16.3C239.6,16.3,239.6,16.2,239.6,16.3c-0.1-0.1-0.2-0.1-0.2-0.1
			c0,0,0,0,0,0l0,0c-0.1,0-0.1-0.1-0.2-0.1c-0.1,0-0.2,0-0.2,0c-0.1,0.1-0.1,0.2-0.1,0.3c0,0.1,0.1,0.1,0.1,0.2c0.1,0,0.1,0,0.1-0.1
			c0-0.1,0.1-0.2,0.2-0.3c0,0,0,0,0,0C239.4,16.3,239.4,16.3,239.6,16.3C239.5,16.4,239.6,16.3,239.6,16.3z M215.8,14.3
			C215.7,14.2,215.7,14.3,215.8,14.3C215.7,14.3,215.8,14.3,215.8,14.3c0,0,0.1,0,0.1,0c0,0,0,0,0,0c0,0,0,0.1,0,0.1
			c0,0,0.1,0,0.1,0c0,0,0,0,0-0.1c0,0-0.1-0.1-0.1-0.1l0,0l0,0c0,0,0,0,0,0C215.9,14.3,215.8,14.3,215.8,14.3
			C215.8,14.3,215.8,14.3,215.8,14.3z M215.7,13.4C215.7,13.4,215.7,13.4,215.7,13.4C215.7,13.4,215.7,13.3,215.7,13.4
			C215.7,13.3,215.6,13.3,215.7,13.4C215.6,13.4,215.6,13.4,215.7,13.4z M215.3,11.3c0.1,0,0.1,0,0.1-0.1c0-0.1,0-0.2-0.1-0.2
			c-0.1,0-0.1,0-0.1,0C215.2,11.2,215.2,11.3,215.3,11.3z M215,14.7C215,14.7,215,14.6,215,14.7c-0.1-0.1-0.2,0-0.2,0
			c0,0,0.1,0.1,0.1,0.1C215,14.9,215,14.8,215,14.7z M214.9,14.1c0,0-0.1-0.1-0.1-0.1c-0.1,0-0.1,0.1-0.1,0.2c0,0,0,0.1,0.1,0.1
			c0.1,0,0.1,0,0.2,0.1c0,0,0,0,0.1,0c0,0,0-0.1,0-0.1C215,14.2,214.9,14.1,214.9,14.1z M214.8,13.5
			C214.7,13.5,214.7,13.5,214.8,13.5C214.7,13.5,214.7,13.6,214.8,13.5c0,0.1,0.1,0.1,0.1,0.1c0,0,0,0,0,0
			C214.8,13.5,214.8,13.5,214.8,13.5z M214.5,11.4C214.5,11.5,214.5,11.5,214.5,11.4c0.1,0.1,0.1,0.1,0.1,0.1l0,0l0,0c0,0,0,0,0,0
			c0,0.1,0,0.1,0,0.2c0,0,0,0,0,0.1c0,0,0,0,0,0c0,0,0.1-0.1,0-0.1c0,0-0.1-0.1-0.1-0.1c0,0,0,0,0,0
			C214.6,11.5,214.6,11.5,214.5,11.4C214.6,11.5,214.6,11.4,214.5,11.4C214.5,11.3,214.5,11.3,214.5,11.4
			C214.5,11.4,214.5,11.4,214.5,11.4z M213.5,13.7C213.5,13.8,213.5,13.8,213.5,13.7C213.6,13.8,213.6,13.8,213.5,13.7
			C213.6,13.8,213.6,13.8,213.5,13.7C213.6,13.8,213.6,13.8,213.5,13.7L213.5,13.7C213.6,13.7,213.6,13.7,213.5,13.7
			C213.6,13.7,213.5,13.7,213.5,13.7z M213.4,14.7c-0.1,0-0.1,0-0.1,0.1c0,0.1,0,0.2,0,0.3c0,0.1,0.1,0.1,0.2,0
			c0.1-0.1,0.1-0.2,0.1-0.2C213.5,14.8,213.4,14.7,213.4,14.7z M213.3,10.8C213.3,10.9,213.3,10.9,213.3,10.8
			C213.4,10.8,213.3,10.8,213.3,10.8C213.3,10.8,213.3,10.8,213.3,10.8z M213,14c0,0.1,0.1,0.2,0.2,0.2c0,0,0,0,0.1,0
			c0.1,0,0.1-0.1,0.1-0.2c0-0.1-0.1-0.2-0.2-0.1C213,13.9,213,14,213,14z M212.8,14.4L212.8,14.4L212.8,14.4L212.8,14.4z
			 M212.4,11.3L212.4,11.3L212.4,11.3L212.4,11.3z M212.3,14C212.3,14,212.4,14,212.3,14c0.1,0.1,0.2,0,0.1,0c0,0-0.1,0-0.1-0.1
			C212.4,13.9,212.3,13.9,212.3,14z M212.4,15.1C212.4,15.1,212.4,15.1,212.4,15.1c0.1,0.1,0.2,0,0.2-0.1c0,0,0-0.1,0-0.1
			c0,0-0.1-0.1-0.1-0.1c0,0-0.1,0-0.1,0C212.3,14.9,212.3,15,212.4,15.1z M211.9,12C212,12.1,212,12.1,211.9,12
			C212,12,212,12,211.9,12C211.9,12,211.9,12,211.9,12C211.9,12,211.9,12,211.9,12z M211.8,11L211.8,11L211.8,11L211.8,11z
			 M211.5,13.5c-0.1,0.1-0.1,0.3,0,0.4c0,0,0,0,0,0c0,0,0,0,0,0l0,0l0,0c0,0,0,0,0,0c0.1-0.1,0.2-0.2,0.3-0.4c0,0,0,0,0-0.1
			c0,0,0,0-0.1,0C211.6,13.5,211.6,13.5,211.5,13.5L211.5,13.5L211.5,13.5L211.5,13.5L211.5,13.5z M211.1,13.1c0.1,0,0.1,0,0.1-0.1
			c0.1-0.1,0-0.2-0.1-0.2c-0.1,0-0.1,0-0.1,0C211,13,211,13.1,211.1,13.1z M195.2,43.1c0,0-0.1,0-0.1,0c0,0.1,0,0.1,0,0.2
			C195.2,43.2,195.2,43.2,195.2,43.1z M195.3,33.2C195.3,33.2,195.3,33.2,195.3,33.2c0.1,0,0.2,0,0.1,0
			C195.4,33.2,195.4,33.2,195.3,33.2C195.3,33.2,195.3,33.2,195.3,33.2z M195.4,38.3L195.4,38.3L195.4,38.3L195.4,38.3z M195.5,41.8
			C195.5,41.8,195.5,41.7,195.5,41.8c-0.1,0-0.1,0-0.1,0C195.4,41.8,195.5,41.8,195.5,41.8C195.5,41.9,195.5,41.8,195.5,41.8z
			 M195.7,45.8L195.7,45.8L195.7,45.8L195.7,45.8z M195.7,28.6c0-0.1,0-0.1,0-0.3c-0.1,0.1-0.1,0.1-0.1,0.2c0,0.1,0,0.1,0.1,0.1
			S195.7,28.7,195.7,28.6z M196.3,26.2c0-0.1-0.1-0.1-0.2,0c-0.1,0.1-0.1,0.2-0.2,0.2c0.1,0,0.1,0,0.2,0
			C196.3,26.5,196.4,26.4,196.3,26.2z M196.8,38.1c0.1,0,0.1-0.1,0.1-0.1c0,0,0,0,0-0.1c0,0-0.1,0-0.1,0
			C196.8,37.9,196.8,38,196.8,38.1C196.8,38,196.8,38.1,196.8,38.1z M197.2,40.6c0,0-0.1,0-0.1-0.1c0,0-0.1,0-0.1,0
			c-0.1,0-0.1,0.1-0.1,0.1c0,0,0.1,0.1,0.1,0.1C197,40.7,197,40.7,197.2,40.6C197.1,40.7,197.1,40.6,197.2,40.6z M207.2,35.5
			L207.2,35.5L207.2,35.5L207.2,35.5z M207.2,38.1c0,0.1,0,0.1,0.1,0.1c0-0.1,0.1-0.1,0.1-0.2c0-0.1,0-0.1,0-0.1c0,0-0.1,0-0.1,0
			C207.2,38,207.2,38.1,207.2,38.1z M206.7,31.5C206.7,31.5,206.7,31.5,206.7,31.5C206.6,31.5,206.6,31.5,206.7,31.5
			C206.6,31.5,206.6,31.5,206.7,31.5C206.7,31.6,206.7,31.5,206.7,31.5z M206.7,21.9c0,0-0.1-0.1-0.1-0.1c-0.1,0-0.2,0.1-0.1,0.2
			c0,0,0,0,0.1,0.1C206.6,22,206.6,22,206.7,21.9C206.7,21.9,206.7,21.9,206.7,21.9z M207,19.9c0-0.1-0.1-0.1-0.1-0.1c0,0,0,0-0.1,0
			C206.9,19.9,206.9,19.9,207,19.9C206.9,20,207,19.9,207,19.9z M207.6,16.9C207.6,16.8,207.6,16.8,207.6,16.9c-0.1,0-0.1,0-0.2,0
			c0,0,0,0,0.1,0.1C207.6,16.9,207.6,16.9,207.6,16.9z M208.5,15.4L208.5,15.4L208.5,15.4L208.5,15.4z M209.2,15.9L209.2,15.9
			L209.2,15.9L209.2,15.9z M209.4,15.6C209.3,15.5,209.3,15.5,209.4,15.6c-0.1-0.1-0.2,0-0.1,0c0,0,0,0,0,0
			C209.3,15.6,209.3,15.6,209.4,15.6z M209.6,14.6C209.6,14.6,209.5,14.5,209.6,14.6c-0.1-0.1-0.1-0.1-0.2-0.1c-0.1,0-0.1,0-0.1,0.1
			c0,0,0,0.1,0,0.1c0,0,0,0,0.1,0C209.5,14.7,209.6,14.6,209.6,14.6z M209.4,13c0.1,0,0.1,0,0.2,0c0-0.1,0-0.1-0.1-0.1
			c-0.1,0-0.1,0-0.2,0C209.3,12.9,209.3,13,209.4,13z M209.9,16.2c0-0.1-0.1-0.2-0.2-0.2c-0.1,0-0.1,0.2,0,0.3
			C209.7,16.3,209.8,16.3,209.9,16.2C209.8,16.3,209.8,16.2,209.9,16.2z M209.7,15.2L209.7,15.2L209.7,15.2L209.7,15.2z M210.1,13.5
			C210.1,13.5,210.1,13.5,210.1,13.5C210.1,13.5,210.1,13.6,210.1,13.5C210.2,13.6,210.2,13.5,210.1,13.5z M210.3,16
			C210.3,15.9,210.3,15.9,210.3,16C210.3,15.9,210.3,15.9,210.3,16C210.2,16,210.3,16,210.3,16C210.3,16,210.3,16,210.3,16z
			 M210.2,15C210.2,15,210.2,15,210.2,15C210.2,15,210.2,15,210.2,15C210.2,15,210.2,15,210.2,15L210.2,15
			C210.3,15,210.3,15,210.2,15C210.3,15,210.3,15,210.2,15c0.1-0.1,0.2,0,0.2,0l0,0c0,0,0,0,0,0c0,0,0,0,0,0c0,0,0.1,0,0.1,0
			c0,0,0,0,0-0.1c0,0-0.1,0-0.1,0c0,0,0,0,0,0c0,0,0.1-0.1,0.1-0.1c0,0,0-0.1-0.1-0.1c0,0-0.1,0-0.1,0C210.2,14.9,210.2,15,210.2,15
			C210.3,15,210.3,15,210.2,15C210.3,15,210.3,15,210.2,15z M209.8,10.4L209.8,10.4L209.8,10.4L209.8,10.4z M209.3,11.8
			c-0.1,0-0.1,0.1-0.1,0.2c0,0.1,0.1,0.2,0.1,0.2c0.2,0,0.4,0.1,0.6,0c0,0,0,0,0,0c0,0,0,0,0,0c0,0.1,0.1,0.2,0.1,0.2
			c0,0,0.1,0,0.1,0c0,0,0.1-0.1,0.1-0.1c0,0,0-0.1,0-0.1c-0.1,0-0.2-0.1-0.2-0.1c0,0,0,0,0,0l0,0l0,0c0,0,0,0,0,0c0-0.1,0-0.1,0-0.2
			c0,0,0-0.1-0.1-0.1C209.7,11.8,209.5,11.8,209.3,11.8z M209.3,8.9c0,0,0.1,0,0.1,0.1c0,0,0,0,0,0C209.4,8.9,209.3,8.8,209.3,8.9
			C209.3,8.8,209.3,8.8,209.3,8.9z M209.1,11.3c0.1,0.1,0.2,0.1,0.3,0c0.1,0,0.1-0.1,0.1-0.2c0,0-0.1-0.1-0.2-0.1
			C209.3,11.1,209.2,11.2,209.1,11.3z M209,13.4L209,13.4L209,13.4L209,13.4z M208.6,13.9C208.6,14,208.6,14,208.6,13.9
			c0.1,0.1,0.1,0.1,0.1,0.1c0.2,0,0.3-0.1,0.5-0.2c0,0,0-0.1,0-0.1s-0.1-0.1-0.1,0C209,13.8,208.8,13.9,208.6,13.9
			C208.6,13.9,208.6,13.9,208.6,13.9z M208.4,12.4C208.4,12.4,208.5,12.5,208.4,12.4c0.1,0.1,0.1,0.1,0.1,0
			C208.5,12.4,208.5,12.4,208.4,12.4C208.5,12.4,208.4,12.4,208.4,12.4z M208.3,13c0,0,0.1,0.1,0.1,0.1c0,0,0.1-0.1,0.1-0.1
			c0,0-0.1-0.1-0.1-0.1C208.3,12.9,208.3,13,208.3,13z M208.2,16.4L208.2,16.4L208.2,16.4L208.2,16.4z M208,10.9
			C208,11,208,11,208,10.9c0.1,0,0.1,0,0.1,0c0,0,0,0,0-0.1C208.1,10.9,208,10.9,208,10.9z M207.8,17.6
			C207.8,17.6,207.8,17.6,207.8,17.6C207.8,17.6,207.8,17.7,207.8,17.6c0.2,0.1,0.2,0.1,0.3,0c0,0-0.1-0.1-0.1-0.1
			C207.9,17.6,207.8,17.6,207.8,17.6z M207.8,14.1c-0.1,0-0.2,0-0.2,0.1c0,0,0,0,0,0.1c0.1,0.1,0.1,0.1,0.2,0
			C207.9,14.2,207.9,14.2,207.8,14.1C207.9,14.1,207.8,14.1,207.8,14.1z M207.4,12.8c0,0,0.1,0.1,0.1,0.1c0,0,0.1,0,0.1,0
			c0-0.2,0.1-0.4,0.2-0.5c0,0,0-0.1,0-0.1c0,0,0,0-0.1,0C207.4,12.3,207.3,12.5,207.4,12.8z M207.1,16.6c0,0-0.1,0-0.1,0.1
			c0,0,0,0.1,0,0.1c0.1,0,0.1,0,0.1,0C207.2,16.7,207.1,16.6,207.1,16.6z M207.1,15.4C207.1,15.4,207.1,15.3,207.1,15.4
			C207,15.3,207,15.3,207.1,15.4C207,15.4,207,15.4,207.1,15.4z M206.7,14.2c0-0.1-0.1-0.1-0.2-0.1c0,0,0,0-0.1,0
			c-0.1,0.1-0.1,0.3,0,0.3c0.1,0.1,0.2,0.1,0.3,0.1c0.1,0,0.2-0.1,0.3-0.1c0,0,0,0,0-0.1c0,0,0,0,0,0c0,0,0,0-0.1,0
			C206.9,14.4,206.8,14.3,206.7,14.2z M206.7,12.5c0,0-0.1-0.1-0.1-0.1c0,0-0.1,0.1-0.1,0.1c0,0,0.1,0.1,0.1,0.1
			C206.7,12.6,206.7,12.5,206.7,12.5z M206.6,12.7C206.6,12.7,206.6,12.8,206.6,12.7c0,0.1,0,0.1,0.1,0.1
			C206.7,12.8,206.7,12.8,206.6,12.7C206.7,12.7,206.7,12.7,206.6,12.7z M206.6,9c0,0.1,0,0.1,0.1,0.2c0,0,0,0,0.1,0
			c0-0.1,0.1-0.1,0.1-0.1c0-0.1,0-0.1-0.1-0.1C206.7,8.9,206.6,8.9,206.6,9z M206.4,10.4c0.1,0,0.2,0,0.2-0.1c0,0,0-0.1,0-0.1
			c-0.1,0-0.2-0.1-0.3-0.1C206.2,10.3,206.3,10.4,206.4,10.4z M205.8,11.7C205.8,11.7,205.8,11.7,205.8,11.7c0.3,0.1,0.4,0,0.6-0.1
			c0,0,0-0.1,0-0.1c0,0,0,0,0,0c0,0,0-0.1,0.1-0.1c0,0.1,0.1,0.1,0.1,0.2c0,0,0,0.1,0.1,0.1c0,0,0.1,0,0.1,0c0,0,0,0,0-0.1
			c0-0.2-0.2-0.1-0.3-0.2c0,0-0.1,0-0.1,0.1c0,0,0,0,0,0c-0.1,0-0.2,0-0.2,0c-0.1,0-0.2,0-0.3,0.1C205.8,11.6,205.8,11.7,205.8,11.7
			z M206,14c0,0-0.1,0-0.1,0c0,0,0,0.1,0.1,0.1c0,0,0.1,0,0.1,0C206.1,14,206.1,14,206,14z M205.6,27.8c-0.1,0,0,0.1,0.1,0.2
			c0.1,0,0.1,0,0.1-0.1c0,0,0-0.1-0.1-0.1C205.7,27.7,205.6,27.7,205.6,27.8z M205.8,34.2L205.8,34.2L205.8,34.2L205.8,34.2z
			 M205.6,11.3C205.6,11.3,205.6,11.3,205.6,11.3C205.7,11.3,205.7,11.3,205.6,11.3C205.7,11.3,205.6,11.3,205.6,11.3
			C205.6,11.3,205.6,11.3,205.6,11.3z M205.6,35.2C205.5,35.2,205.6,35.2,205.6,35.2C205.6,35.2,205.6,35.2,205.6,35.2
			C205.6,35.2,205.6,35.2,205.6,35.2C205.6,35.2,205.6,35.2,205.6,35.2L205.6,35.2C205.6,35.2,205.6,35.2,205.6,35.2L205.6,35.2
			C205.6,35.2,205.6,35.2,205.6,35.2z M205.3,11C205.3,11,205.3,11,205.3,11C205.4,11,205.4,11,205.3,11
			C205.4,11,205.3,10.9,205.3,11C205.3,11,205.3,11,205.3,11z M205.3,19.5C205.3,19.5,205.3,19.5,205.3,19.5
			C205.3,19.6,205.3,19.6,205.3,19.5C205.3,19.6,205.3,19.5,205.3,19.5C205.3,19.5,205.3,19.5,205.3,19.5z M205.1,11.4
			c0,0.1,0.1,0.1,0.1,0c0.1,0,0.1-0.1,0.1-0.1c0,0-0.1,0-0.1-0.1C205.1,11.4,205.1,11.4,205.1,11.4z M205.1,27.9
			c0.1,0,0.1-0.1,0.1-0.2c0-0.1-0.1-0.1-0.1-0.1c-0.1,0-0.2,0.1-0.2,0.1C205,27.8,205.1,27.9,205.1,27.9z M205,32.1L205,32.1
			L205,32.1L205,32.1z M205,14.8C205,14.8,205,14.8,205,14.8C205,14.8,205,14.8,205,14.8C205,14.8,205,14.8,205,14.8
			C205,14.8,205,14.8,205,14.8z M205,11C205,11,205,11,205,11L205,11C205,10.9,205,10.9,205,11c0.1-0.1,0.1-0.1,0-0.2c0,0,0,0,0,0
			C205,10.8,205,10.9,205,11C205,10.9,205,10.9,205,11C205,10.9,205,10.9,205,11C204.9,10.9,204.9,11,205,11z M204.8,38.9
			C204.8,39,204.8,39,204.8,38.9c0.1,0.1,0.1,0,0.2,0C204.9,38.9,204.9,38.8,204.8,38.9C204.8,38.9,204.8,38.9,204.8,38.9z
			 M204.7,27.9c0,0,0,0.1,0,0.1C204.7,28,204.7,27.9,204.7,27.9C204.8,27.9,204.7,27.9,204.7,27.9C204.7,27.9,204.6,27.9,204.7,27.9
			z M204.8,40.1C204.7,40.1,204.7,40.1,204.8,40.1C204.7,40.1,204.7,40.2,204.8,40.1c-0.1,0.1-0.1,0.1-0.1,0.1
			C204.7,40.3,204.8,40.3,204.8,40.1C204.8,40.2,204.8,40.1,204.8,40.1z M204.5,34L204.5,34L204.5,34L204.5,34z M204,12.9
			c0,0.1,0.1,0.3,0.2,0.3c0,0,0.1,0,0.1-0.1c0-0.1,0-0.2-0.2-0.3C204.1,12.9,204,12.9,204,12.9C204,12.9,204,12.9,204,12.9z
			 M203.9,12L203.9,12L203.9,12L203.9,12z M203.8,13.5c0,0,0.1,0,0.1,0C203.9,13.5,203.9,13.5,203.8,13.5
			C203.8,13.5,203.8,13.5,203.8,13.5z M203.7,14.6L203.7,14.6L203.7,14.6L203.7,14.6z M202.3,25.3C202.4,25.4,202.4,25.4,202.3,25.3
			c0.1,0.1,0.1,0.1,0.2,0c0,0,0,0,0-0.1C202.4,25.3,202.4,25.3,202.3,25.3z M202,27.8C202,27.8,202.1,27.8,202,27.8
			c0.1,0.1,0.2,0.1,0.2,0c0,0,0,0,0-0.1C202.2,27.7,202.1,27.7,202,27.8C202,27.7,202,27.8,202,27.8z M201.7,26c0,0-0.1,0.1,0,0.1
			c0.1,0,0.2,0.1,0.3,0.1c0,0,0,0,0.1-0.1c0-0.1,0-0.2-0.1-0.2C201.8,25.9,201.8,25.9,201.7,26z M201.8,24.5
			C201.8,24.5,201.8,24.4,201.8,24.5c0.1-0.1,0-0.2-0.1-0.2c0,0,0,0,0,0.1C201.6,24.4,201.7,24.5,201.8,24.5z M201.4,25.6
			C201.4,25.7,201.4,25.7,201.4,25.6c0.1,0.1,0.1,0.1,0.2,0c0-0.1,0.1-0.2,0.1-0.3c0-0.1-0.1-0.1-0.1-0.1c0,0-0.1,0-0.1,0.1
			C201.4,25.4,201.4,25.5,201.4,25.6z M201.2,24.9L201.2,24.9L201.2,24.9L201.2,24.9z M200.6,28.5L200.6,28.5L200.6,28.5L200.6,28.5
			z M200.4,38.9C200.4,39,200.4,39,200.4,38.9c0.1,0.1,0.1,0,0.1,0C200.6,38.9,200.5,38.8,200.4,38.9
			C200.5,38.8,200.4,38.9,200.4,38.9z M198.8,33.2C198.8,33.2,198.8,33.2,198.8,33.2C198.8,33.2,198.8,33.3,198.8,33.2
			C198.8,33.3,198.8,33.3,198.8,33.2C198.8,33.3,198.8,33.2,198.8,33.2z M199.2,37.7C199.2,37.7,199.1,37.7,199.2,37.7
			c-0.1,0-0.1,0-0.1,0C199,37.8,199,37.8,199.2,37.7C199.1,37.8,199.1,37.8,199.2,37.7z M199.4,30.6L199.4,30.6L199.4,30.6
			L199.4,30.6z M199.9,48.1L199.9,48.1L199.9,48.1L199.9,48.1z M199.9,24.7c0,0,0.1,0,0.1,0.1c0,0,0,0,0-0.1
			C200,24.7,200,24.7,199.9,24.7C199.9,24.7,199.9,24.7,199.9,24.7z M199.9,32.3C199.9,32.4,200,32.4,199.9,32.3
			C200,32.3,200,32.3,199.9,32.3L199.9,32.3C199.9,32.3,199.9,32.3,199.9,32.3C199.9,32.3,199.9,32.3,199.9,32.3
			C199.9,32.3,199.9,32.3,199.9,32.3z M200.1,38.8C200.1,38.8,200,38.8,200.1,38.8C200,38.8,200,38.8,200.1,38.8
			C200,38.8,200,38.9,200.1,38.8z M200.2,24.3C200.2,24.3,200.1,24.3,200.2,24.3c-0.1-0.1-0.2-0.1-0.2,0
			C200,24.4,200,24.4,200.2,24.3C200.1,24.4,200.2,24.4,200.2,24.3z M200.4,22.4C200.4,22.4,200.3,22.4,200.4,22.4
			c-0.1-0.1-0.1,0-0.1,0C200.3,22.5,200.3,22.5,200.4,22.4C200.3,22.5,200.4,22.4,200.4,22.4z M200.6,43.5
			C200.6,43.5,200.6,43.4,200.6,43.5c-0.1,0-0.2,0-0.3,0c0,0,0,0,0,0.1C200.5,43.5,200.6,43.6,200.6,43.5
			C200.6,43.5,200.6,43.5,200.6,43.5z M200.8,32.1L200.8,32.1L200.8,32.1L200.8,32.1z M200.8,24.4C200.8,24.4,200.8,24.4,200.8,24.4
			C200.8,24.4,200.7,24.4,200.8,24.4C200.7,24.5,200.8,24.5,200.8,24.4C200.8,24.5,200.8,24.5,200.8,24.4z M201,22.2
			C201,22.2,201,22.2,201,22.2C201.1,22.2,201.1,22.1,201,22.2C201,22.1,201,22.1,201,22.2C201,22.2,201,22.2,201,22.2z M201.6,37.1
			C201.6,37.1,201.6,37.1,201.6,37.1c-0.2-0.2-0.3-0.2-0.4-0.1c-0.1,0.1-0.1,0.2-0.2,0.3c0.1,0,0.2,0.1,0.2,0.1
			C201.3,37.3,201.5,37.2,201.6,37.1z M201.7,31.2c0,0,0-0.1-0.1-0.1c0,0-0.1,0-0.1,0c0,0,0,0.1,0.1,0.1
			C201.6,31.3,201.7,31.2,201.7,31.2z M201.7,47.3C201.7,47.3,201.7,47.2,201.7,47.3C201.6,47.2,201.6,47.3,201.7,47.3
			C201.7,47.3,201.7,47.3,201.7,47.3z M201.8,46.5C201.8,46.5,201.8,46.5,201.8,46.5c-0.1-0.1-0.1-0.1-0.2,0c0,0,0,0.1,0,0.1
			C201.7,46.6,201.8,46.5,201.8,46.5z M202,27.1c0-0.1-0.1-0.3-0.1-0.4c-0.1,0.1-0.2,0.2-0.3,0.3c0,0,0,0,0,0c0,0,0,0,0,0
			c0,0-0.1,0-0.1,0c0,0,0.1,0.1,0.1,0c0,0,0,0,0-0.1c0,0,0,0,0,0c0,0,0,0,0,0l0,0c0.1,0.1,0.2,0.2,0.2,0.2
			C201.9,27.2,201.9,27.2,202,27.1C201.9,27.1,202,27.1,202,27.1z M202,42.1L202,42.1L202,42.1L202,42.1z M202.1,41.1
			C202.1,41.1,202.1,41,202.1,41.1C202,41,202,41,202.1,41.1C202,41.1,202,41.1,202.1,41.1C202.1,41.1,202.1,41.1,202.1,41.1z
			 M202.3,43.1C202.3,43.1,202.2,43.1,202.3,43.1c-0.1,0-0.1,0-0.2,0.1c0,0,0,0,0.1,0c0,0,0,0,0.1,0
			C202.3,43.2,202.3,43.2,202.3,43.1z M202.1,30C202.1,30.1,202.2,30.1,202.1,30c0.1,0.1,0.1,0,0.1,0C202.3,30,202.2,30,202.1,30
			C202.1,30,202.1,30,202.1,30z M202.3,29.8c0.1,0,0.1-0.1,0.1-0.2c0-0.1-0.1-0.1-0.2-0.1c-0.1,0-0.1,0-0.2,0c0,0-0.1,0.1-0.1,0.1
			c0,0,0,0.1,0.1,0.1C202.2,29.8,202.2,29.8,202.3,29.8z M202.5,31.2C202.5,31.2,202.4,31.2,202.5,31.2c-0.1-0.1-0.1,0-0.1,0
			c0,0,0,0.1,0,0.1c0,0,0,0,0.1,0C202.5,31.4,202.5,31.3,202.5,31.2z M202.6,47.2C202.6,47.2,202.6,47.2,202.6,47.2
			c-0.1,0-0.1,0-0.1,0C202.5,47.2,202.5,47.3,202.6,47.2C202.6,47.3,202.6,47.3,202.6,47.2z M203,27.9C203,27.9,203,27.9,203,27.9
			c-0.2,0-0.3,0-0.5,0.1c-0.1,0-0.1,0.1-0.1,0.2c0,0.1,0.2,0.2,0.3,0.2C202.8,28.2,202.9,28.1,203,27.9
			C202.9,27.9,202.9,27.9,203,27.9C203,27.9,203,28,203,27.9C203,27.9,203,27.9,203,27.9z M203.2,22.1L203.2,22.1L203.2,22.1
			L203.2,22.1z M203.5,40.8c0,0,0-0.1,0-0.1c0,0,0,0,0,0c0,0,0,0,0,0l0,0c0,0,0,0,0,0c-0.1,0-0.1-0.1-0.2-0.1c0,0-0.1,0-0.1,0
			c0,0.1,0,0.1,0.1,0.1c0.1,0,0.1,0,0.2,0c0,0,0,0,0,0C203.4,40.7,203.4,40.7,203.5,40.8z M203.7,42c0-0.1,0-0.1,0-0.1
			C203.7,41.9,203.6,41.9,203.7,42c-0.1-0.1-0.1,0-0.1,0C203.6,42.1,203.6,42.1,203.7,42C203.7,42.1,203.7,42.1,203.7,42z
			 M203.8,46.8C203.8,46.8,203.8,46.8,203.8,46.8C203.8,46.8,203.7,46.8,203.8,46.8C203.7,46.8,203.7,46.8,203.8,46.8
			C203.8,46.8,203.8,46.8,203.8,46.8z M204,51.3C204,51.3,203.9,51.3,204,51.3c-0.1,0-0.1,0-0.1,0C203.9,51.3,203.9,51.4,204,51.3
			C204,51.4,204,51.4,204,51.3z M203.9,46C203.9,46,203.9,46,203.9,46c-0.1,0.1-0.1,0.1,0,0.2c0,0,0,0,0.1,0C204,46,204,46,203.9,46
			z M204.1,24.4c0-0.1,0-0.2-0.1-0.2c-0.1-0.1-0.3-0.1-0.4-0.2c0-0.1-0.1,0-0.2,0c0,0.1,0,0.1-0.1,0.2c0.2,0.1,0.4,0.2,0.6,0.3
			C204,24.6,204.1,24.5,204.1,24.4z M204.1,30.1c0.1,0,0.1,0,0.2,0c0,0,0,0,0-0.1c0-0.1-0.1-0.1-0.3-0.1C204,29.9,204,30,204.1,30.1
			C204,30,204,30.1,204.1,30.1z M204.1,38.2L204.1,38.2L204.1,38.2L204.1,38.2z M204.2,41.4C204.2,41.4,204.2,41.4,204.2,41.4
			C204.2,41.4,204.2,41.4,204.2,41.4C204.2,41.4,204.2,41.3,204.2,41.4C204.2,41.3,204.2,41.3,204.2,41.4z M204.2,49.5L204.2,49.5
			L204.2,49.5L204.2,49.5z M204.4,50c0,0-0.1-0.1-0.1-0.1c0,0,0,0.1-0.1,0.1c0,0,0,0.1,0.1,0.1C204.3,50.2,204.4,50.1,204.4,50z
			 M204.6,39.5c0-0.1,0-0.2-0.1-0.2c-0.1,0-0.3,0.1-0.2,0.3c0,0.1,0.2,0.1,0.2,0C204.5,39.6,204.5,39.6,204.6,39.5z M205,41
			c-0.1-0.1-0.2-0.2-0.3-0.2c0,0-0.1,0-0.1,0c0,0-0.1,0.1-0.1,0.1c0,0.1,0,0.3,0,0.4c0,0,0.1,0.1,0.1,0.1c0,0,0.1,0,0.1,0
			c0.1-0.1,0.1-0.2,0.2-0.2C205,41.1,205,41,205,41z M205.1,30.2C205.2,30.2,205.2,30.2,205.1,30.2
			C205.2,30.1,205.2,30.1,205.1,30.2C205.1,30.1,205.1,30.2,205.1,30.2C205.1,30.2,205.1,30.2,205.1,30.2z M205.3,48.6L205.3,48.6
			L205.3,48.6L205.3,48.6z M205.3,41.5C205.3,41.5,205.3,41.5,205.3,41.5c-0.1,0-0.1,0-0.1,0c0,0-0.1,0.1-0.1,0.1c0,0,0,0,0,0.1
			C205.3,41.7,205.4,41.6,205.3,41.5z M205.9,40.2c0-0.1-0.1-0.1-0.1-0.1c-0.2,0-0.3,0.1-0.5,0.3c0.2,0,0.4,0,0.6,0
			C205.8,40.4,205.9,40.3,205.9,40.2z M206,38.5c0-0.2,0-0.4,0.1-0.6c0,0,0,0,0,0c0-0.1,0-0.1,0-0.2c0,0-0.1-0.1-0.1-0.1
			c0,0-0.1,0-0.1,0.1c0,0.2-0.1,0.4-0.1,0.6c0,0-0.1,0.1-0.1,0.1c0,0.1,0.1,0.1,0.2,0.1C205.9,38.6,206,38.6,206,38.5z M206.1,39.3
			C206.1,39.3,206.2,39.3,206.1,39.3C206.2,39.3,206.2,39.3,206.1,39.3C206.1,39.3,206.1,39.3,206.1,39.3
			C206.1,39.3,206.1,39.3,206.1,39.3L206.1,39.3C206.1,39.3,206.1,39.3,206.1,39.3C206.1,39.4,206.1,39.4,206.1,39.3
			C206.2,39.4,206.2,39.3,206.1,39.3z M206.5,41.1c0-0.1-0.1-0.1-0.1-0.1c0,0,0,0-0.1,0C206.4,41.1,206.4,41.1,206.5,41.1
			C206.5,41.1,206.5,41.1,206.5,41.1z M206.6,41.6C206.6,41.6,206.5,41.6,206.6,41.6C206.6,41.7,206.6,41.7,206.6,41.6
			C206.6,41.7,206.6,41.7,206.6,41.6z M206.7,39.9c-0.1,0.1-0.1,0.2-0.2,0.3c0,0.1,0,0.1,0.1,0.1c0,0,0.1,0,0.1,0
			C206.7,40.2,206.8,40,206.7,39.9z M206.8,35.8C206.8,35.7,206.8,35.7,206.8,35.8c-0.1,0-0.1,0-0.2,0c0,0,0,0,0.1,0.1
			C206.8,35.8,206.8,35.8,206.8,35.8z M207.2,39.4C207.2,39.4,207.2,39.4,207.2,39.4c-0.1,0-0.1-0.1-0.1,0c-0.1,0-0.1,0.1-0.1,0.1
			c0,0,0.1,0.1,0.1,0.1C207.1,39.5,207.2,39.5,207.2,39.4z M207.5,40.3C207.5,40.3,207.5,40.3,207.5,40.3c-0.1,0-0.2-0.1-0.2,0
			c-0.1,0-0.1,0.1-0.1,0.2c0,0.1,0.2,0.1,0.3,0C207.5,40.4,207.5,40.4,207.5,40.3z M207.6,34.6L207.6,34.6L207.6,34.6L207.6,34.6z
			 M207.7,54.5L207.7,54.5L207.7,54.5L207.7,54.5z M208.3,54.2L208.3,54.2L208.3,54.2L208.3,54.2z M208.6,47.1
			C208.6,47.1,208.6,47.1,208.6,47.1C208.6,47.1,208.6,47.1,208.6,47.1L208.6,47.1z M208.8,37.6c0-0.1-0.1-0.2-0.2-0.2
			c0,0,0,0,0,0.1C208.6,37.6,208.6,37.7,208.8,37.6C208.7,37.7,208.7,37.6,208.8,37.6z M210.1,39.4L210.1,39.4L210.1,39.4
			L210.1,39.4z M210.5,36.9c0-0.1-0.1-0.1-0.1-0.2c-0.1-0.1-0.1,0-0.2,0c-0.1,0-0.1,0.1,0,0.2c0.1,0.1,0.2,0.1,0.3,0.1
			C210.4,37.1,210.5,37,210.5,36.9z M210.6,44.7L210.6,44.7L210.6,44.7L210.6,44.7z M213.3,42.7L213.3,42.7L213.3,42.7L213.3,42.7z
			 M214.2,43.8L214.2,43.8L214.2,43.8L214.2,43.8z M215.7,43L215.7,43L215.7,43L215.7,43z M218,38.9C218,38.9,218,39,218,38.9
			c-0.1,0.1,0,0.2,0,0.2c0,0,0.1,0,0.1-0.1C218.1,39,218.1,38.9,218,38.9z M218.3,37.5C218.3,37.4,218.3,37.4,218.3,37.5
			C218.3,37.5,218.3,37.5,218.3,37.5C218.3,37.5,218.3,37.5,218.3,37.5C218.3,37.5,218.4,37.5,218.3,37.5z M218.5,38.9
			C218.5,38.9,218.5,38.9,218.5,38.9C218.4,38.9,218.4,38.9,218.5,38.9C218.4,38.9,218.4,39,218.5,38.9
			C218.5,39,218.5,39,218.5,38.9z M218.8,38.5C218.8,38.5,218.8,38.5,218.8,38.5c-0.1,0-0.1,0-0.1,0.1c0,0,0,0,0.1,0.1
			C218.8,38.6,218.8,38.5,218.8,38.5z M218.9,36.4L218.9,36.4L218.9,36.4L218.9,36.4z M222.3,42.3L222.3,42.3L222.3,42.3L222.3,42.3
			z M222.2,41.5C222.2,41.5,222.3,41.5,222.2,41.5C222.3,41.5,222.3,41.5,222.2,41.5C222.2,41.5,222.2,41.5,222.2,41.5z M221.2,39.3
			L221.2,39.3L221.2,39.3L221.2,39.3z M222.5,52.9c0,0,0-0.1,0-0.1c-0.1-0.1-0.2-0.1-0.3-0.1c0,0-0.1,0.1-0.1,0.1
			c0,0.1,0,0.1,0.1,0.1c0,0,0.1,0,0.1,0C222.3,52.9,222.3,52.9,222.5,52.9C222.4,52.9,222.5,52.9,222.5,52.9z M222.7,41
			C222.7,41,222.7,41,222.7,41C222.7,41,222.7,41,222.7,41C222.6,41.1,222.7,41.1,222.7,41C222.7,41.1,222.7,41.1,222.7,41z
			 M226.9,40.4C226.8,40.4,226.9,40.4,226.9,40.4C226.9,40.5,226.9,40.5,226.9,40.4C226.9,40.4,226.9,40.4,226.9,40.4
			C226.9,40.3,226.9,40.3,226.9,40.4z M223.5,47.3C223.5,47.2,223.4,47.2,223.5,47.3C223.4,47.2,223.4,47.2,223.5,47.3
			C223.4,47.3,223.4,47.3,223.5,47.3C223.4,47.3,223.5,47.3,223.5,47.3z M223.9,41.4c0-0.1-0.1-0.1-0.2,0c0,0,0,0,0,0.1
			C223.7,41.4,223.8,41.4,223.9,41.4C223.8,41.4,223.9,41.4,223.9,41.4z M224.3,60.1C224.3,60.1,224.3,60,224.3,60.1
			c-0.1,0-0.2,0-0.1,0.1C224.2,60.1,224.3,60.1,224.3,60.1C224.3,60.1,224.3,60.1,224.3,60.1z M225.2,56.2
			C225.2,56.2,225.2,56.1,225.2,56.2c-0.1-0.1-0.1-0.1-0.1-0.1c0,0,0,0.1,0,0.1C225.1,56.2,225.2,56.2,225.2,56.2z M225.7,50
			C225.7,50,225.7,50,225.7,50C225.7,50,225.6,50,225.7,50C225.6,50,225.6,50,225.7,50C225.7,50,225.7,50,225.7,50z M226.2,39.2
			L226.2,39.2L226.2,39.2L226.2,39.2z M226.6,39C226.6,39,226.7,38.9,226.6,39c0.1-0.1,0.1-0.2,0.1-0.2c0,0-0.1,0-0.1,0
			c0,0-0.1,0.1-0.1,0.1C226.6,38.9,226.6,38.9,226.6,39z M226.7,40.9c0,0,0.1,0,0.1,0c0,0,0,0,0-0.1
			C226.8,40.9,226.8,40.8,226.7,40.9C226.7,40.9,226.7,40.9,226.7,40.9z M227,58C226.9,58,226.9,58,227,58c-0.1-0.1-0.2,0-0.2,0
			c0,0,0.1,0.1,0.1,0.1C226.9,58.1,226.9,58,227,58z M227,41.5L227,41.5L227,41.5L227,41.5z M227.4,37.9c0,0-0.1,0-0.1,0.1
			c0,0,0,0.1,0,0.1c0,0,0.1,0,0.1,0C227.5,38,227.5,37.9,227.4,37.9z M227.8,40.6C227.8,40.6,227.8,40.6,227.8,40.6
			C227.7,40.6,227.7,40.6,227.8,40.6C227.6,40.6,227.7,40.6,227.8,40.6C227.7,40.6,227.8,40.6,227.8,40.6z M228.1,58L228.1,58
			C228,57.9,228,57.9,228.1,58C228,57.9,228,57.9,228.1,58c-0.1-0.1-0.1-0.1-0.1-0.1C228,57.9,228,57.9,228.1,58
			C228,57.9,228,57.9,228.1,58L228.1,58L228.1,58L228.1,58z M229.2,56.2L229.2,56.2L229.2,56.2L229.2,56.2z M229.5,38.7L229.5,38.7
			L229.5,38.7L229.5,38.7z M230.7,50.8C230.7,50.8,230.7,50.7,230.7,50.8C230.7,50.7,230.6,50.8,230.7,50.8
			C230.6,50.8,230.7,50.9,230.7,50.8C230.7,50.8,230.7,50.8,230.7,50.8z M231.5,55.3C231.5,55.3,231.5,55.2,231.5,55.3
			C231.5,55.2,231.4,55.2,231.5,55.3C231.4,55.3,231.4,55.3,231.5,55.3z M232.1,53.4C232.1,53.4,232.1,53.4,232.1,53.4
			C232.1,53.3,232,53.4,232.1,53.4C232,53.4,232,53.4,232.1,53.4C232.1,53.4,232.1,53.4,232.1,53.4z M234.2,63.6L234.2,63.6
			L234.2,63.6L234.2,63.6z M234.3,43.9C234.3,43.9,234.2,43.9,234.3,43.9c-0.1,0-0.1-0.1-0.1-0.1c0,0,0,0.1,0,0.1
			C234.1,43.9,234.2,44,234.3,43.9C234.2,44,234.3,43.9,234.3,43.9z M260.5,43.9C260.5,44,260.5,43.9,260.5,43.9
			C260.5,43.9,260.5,43.9,260.5,43.9C260.5,43.9,260.4,43.9,260.5,43.9z M259.5,36.3C259.5,36.3,259.5,36.3,259.5,36.3
			C259.5,36.3,259.6,36.3,259.5,36.3C259.6,36.3,259.5,36.2,259.5,36.3C259.5,36.2,259.5,36.3,259.5,36.3z M259,36.9
			c0.1,0.1,0.2,0.1,0.3,0c0,0,0-0.1,0-0.1c-0.1,0-0.1-0.1-0.2-0.1c0,0-0.1,0-0.1,0.1C259,36.8,259,36.9,259,36.9z M259.3,41.2
			C259.3,41.2,259.2,41.2,259.3,41.2C259.2,41.3,259.2,41.3,259.3,41.2c0,0.1,0,0.1,0.1,0.1c0,0,0,0,0,0
			C259.3,41.3,259.3,41.3,259.3,41.2z M258.7,40c0,0,0,0.1,0,0.1C258.8,40.1,258.8,40.1,258.7,40C258.8,40,258.8,40,258.7,40
			C258.8,40,258.7,40,258.7,40z M258.5,35.4L258.5,35.4L258.5,35.4L258.5,35.4z M258.3,41.3L258.3,41.3L258.3,41.3L258.3,41.3z
			 M258.2,40.1L258.2,40.1L258.2,40.1L258.2,40.1z M257.9,35.8C257.9,35.8,257.9,35.8,257.9,35.8C257.9,35.8,258,35.8,257.9,35.8
			C257.9,35.7,257.9,35.7,257.9,35.8C257.9,35.7,257.9,35.8,257.9,35.8z M257,40.1C257,40.1,257,40.1,257,40.1
			C257,40.1,257,40.1,257,40.1C257,40.1,257,40.1,257,40.1C257,40.1,257,40.1,257,40.1c0.2,0,0.3,0,0.4,0c0,0,0.1-0.1,0.1-0.1
			c0,0,0-0.1-0.1-0.1c-0.1,0-0.1,0-0.2,0C257.1,40,257.1,40,257,40.1C257,40.1,257,40.1,257,40.1L257,40.1z M257.4,43.5
			c0,0,0-0.1-0.1-0.2c0,0-0.1,0-0.1,0c0,0-0.1,0.1-0.1,0.1c0,0,0,0,0,0.1C257.2,43.6,257.4,43.6,257.4,43.5z M257.1,49.5
			C257.1,49.5,257,49.5,257.1,49.5c0,0.1,0,0.1,0.1,0.1c0,0,0,0,0,0C257.2,49.5,257.1,49.5,257.1,49.5z M257.3,42c0,0,0-0.1,0-0.2
			c-0.1,0-0.1,0.1-0.2,0.1c0,0,0,0,0,0.1C257.1,42,257.2,42,257.3,42z M256.4,39.4C256.4,39.4,256.4,39.5,256.4,39.4
			c0.1,0.1,0.2,0.1,0.3,0c0,0,0-0.1,0-0.1c0,0,0,0-0.1,0C256.6,39.3,256.5,39.3,256.4,39.4C256.4,39.3,256.4,39.4,256.4,39.4z
			 M256.1,44c0.2,0.3,0.6,0.2,0.8,0.3c0,0,0.1-0.1,0.1-0.1c0-0.1,0.1-0.2,0.1-0.4c0,0-0.1-0.1-0.1-0.1c-0.1,0-0.1,0-0.2,0.1
			c0,0,0,0,0,0c0,0,0,0,0,0c0-0.1,0-0.1-0.1-0.1c-0.1,0-0.2-0.1-0.3-0.2c0,0,0,0,0,0h-0.1l0,0c0,0,0,0,0,0l0,0c0,0,0,0,0,0
			c-0.1,0.3-0.1,0.3,0.2,0.3c0.1,0,0.1,0,0.2,0.1c0,0,0,0,0,0c0,0,0,0,0,0c0,0,0,0,0,0c0,0,0,0,0,0c0,0,0,0,0,0.1
			c0,0.2-0.2,0.3-0.3,0.2c-0.1-0.1-0.2-0.1-0.2-0.2C256.3,44,256.2,44,256.1,44z M256.6,44.7C256.6,44.7,256.6,44.7,256.6,44.7
			C256.6,44.7,256.6,44.7,256.6,44.7C256.6,44.7,256.6,44.7,256.6,44.7C256.6,44.7,256.6,44.7,256.6,44.7z M256.2,52.6
			C256.2,52.6,256.2,52.6,256.2,52.6c-0.1,0.1,0,0.1,0,0.1c0,0,0.1,0,0.1-0.1C256.3,52.6,256.2,52.6,256.2,52.6z M255.8,43.5
			L255.8,43.5L255.8,43.5L255.8,43.5z M255.6,47.9C255.6,47.9,255.6,47.9,255.6,47.9c0-0.1,0-0.1,0-0.1
			C255.6,47.8,255.6,47.8,255.6,47.9C255.5,47.9,255.5,47.9,255.6,47.9z M255.2,34.5c0,0,0.1,0.1,0.1,0.1c0.1,0,0.2,0,0.2-0.1
			c0,0,0-0.1,0-0.1c0,0-0.1,0-0.1,0C255.3,34.4,255.3,34.5,255.2,34.5z M255.4,43.6c0,0,0,0.1,0,0.1c0,0,0,0,0,0.1
			C255.4,43.7,255.5,43.7,255.4,43.6C255.5,43.7,255.4,43.6,255.4,43.6z M255.1,38.2L255.1,38.2C255.2,38.2,255.2,38.2,255.1,38.2
			C255.1,38.2,255.1,38.2,255.1,38.2L255.1,38.2C255.1,38.2,255.1,38.2,255.1,38.2C255.1,38.2,255.1,38.2,255.1,38.2z M255,37.3
			L255,37.3L255,37.3L255,37.3z M255,49.6c0,0,0,0.1,0,0.1c0,0,0,0,0,0.1c0,0,0,0,0,0l0,0c0,0,0,0,0,0c0,0,0,0,0,0c0,0,0,0,0,0
			c0,0,0,0,0,0c0,0,0,0,0,0C255,49.7,255,49.7,255,49.6C255,49.7,255,49.6,255,49.6C255,49.6,255,49.6,255,49.6z M254.8,34.8
			C254.8,34.8,254.8,34.8,254.8,34.8C254.9,34.8,254.9,34.8,254.8,34.8C254.8,34.7,254.8,34.8,254.8,34.8z M254.7,39.1
			C254.7,39.1,254.7,39.2,254.7,39.1C254.7,39.2,254.7,39.1,254.7,39.1C254.7,39.1,254.7,39.1,254.7,39.1
			C254.7,39.1,254.7,39.1,254.7,39.1z M254.5,43C254.5,43,254.5,43.1,254.5,43c0.1,0.1,0.1,0,0.1,0C254.6,43,254.5,43,254.5,43
			C254.5,43,254.5,43,254.5,43z M253.7,42.2C253.7,42.3,253.7,42.3,253.7,42.2C253.8,42.3,253.8,42.3,253.7,42.2
			C253.8,42.2,253.8,42.2,253.7,42.2C253.8,42.2,253.7,42.2,253.7,42.2z M253.6,37.4L253.6,37.4L253.6,37.4L253.6,37.4z M253.2,44.6
			C253.2,44.6,253.2,44.5,253.2,44.6C253.2,44.5,253.2,44.5,253.2,44.6C253.2,44.5,253.2,44.5,253.2,44.6
			C253.1,44.5,253.2,44.6,253.2,44.6z M253,29.5C253,29.5,253,29.5,253,29.5C253,29.5,253.1,29.5,253,29.5
			C253.1,29.5,253,29.5,253,29.5C253,29.5,253,29.5,253,29.5z M253,30C253,30,252.9,30,253,30c-0.1,0-0.1,0-0.1,0c0,0,0,0,0,0.1
			c0,0,0.1,0,0.1,0C253,30.1,253,30,253,30C253,30,253,30,253,30z M252.9,40c0-0.1-0.1-0.1-0.1-0.1c-0.1,0.1-0.1,0.1-0.1,0.2
			c0,0.1,0.1,0.1,0.1,0.2C252.9,40.2,252.9,40.1,252.9,40z M253,21.7C252.9,21.7,252.9,21.7,253,21.7c-0.1,0.1,0,0.1,0,0.1
			C253,21.8,253,21.8,253,21.7C253.1,21.7,253,21.7,253,21.7z M253.2,18.8C253.2,18.7,253.2,18.7,253.2,18.8
			C253.2,18.7,253.2,18.7,253.2,18.8c-0.1,0-0.1,0-0.1,0.1C253.1,18.8,253.2,18.9,253.2,18.8C253.2,18.8,253.2,18.8,253.2,18.8z
			 M253.2,14.7C253.2,14.7,253.2,14.7,253.2,14.7c-0.1,0-0.1,0-0.1,0c0,0,0,0.1,0.1,0.1C253.2,14.8,253.2,14.8,253.2,14.7z
			 M253.7,21.4C253.7,21.4,253.6,21.3,253.7,21.4C253.6,21.3,253.6,21.3,253.7,21.4C253.6,21.4,253.6,21.4,253.7,21.4z M253.6,15
			C253.6,15,253.6,15,253.6,15c0,0.1,0,0.1,0.1,0.1C253.7,15.1,253.7,15.1,253.6,15C253.7,15,253.7,15,253.6,15z M250.8,13.9
			c0.1,0.1,0.1,0.2,0.2,0.1c0.1,0,0.3,0,0.4-0.1c0-0.1-0.1-0.2-0.1-0.3c0,0,0-0.1,0.1-0.1c0,0,0.1,0,0.1,0c0.1,0,0.1,0.1,0.2,0.1
			c0.1,0.2,0.3,0.2,0.5,0.2c0.2,0,0.3-0.1,0.3-0.3c0,0,0.1-0.1,0.1-0.1c0.1,0,0.1,0.1,0.2,0.1c0.2,0,0.5-0.2,0.5-0.4
			c0-0.2,0-0.3,0.3-0.4c0.1,0,0.1-0.2,0.1-0.2c-0.1-0.1-0.1-0.1-0.2-0.1c-0.1,0-0.2,0-0.4-0.1c-0.2,0-0.3,0-0.4,0.1
			c-0.1,0.1-0.2,0.2-0.3,0.3c-0.2,0.1-0.4,0.2-0.5,0.3c-0.1,0.1-0.2,0.1-0.4,0.1c-0.2,0-0.3,0.1-0.4,0.2c-0.1,0.1-0.2,0.2-0.3,0.3
			c0,0-0.1,0.1-0.1,0.1C250.7,13.7,250.7,13.8,250.8,13.9z M252.6,25.7C252.6,25.7,252.6,25.7,252.6,25.7
			C252.6,25.7,252.6,25.7,252.6,25.7C252.6,25.7,252.6,25.7,252.6,25.7C252.6,25.7,252.6,25.7,252.6,25.7z M252.5,17.2L252.5,17.2
			L252.5,17.2L252.5,17.2z M252.4,39.1L252.4,39.1L252.4,39.1L252.4,39.1z M252.2,18.8L252.2,18.8L252.2,18.8L252.2,18.8z M252,36.9
			C252,36.9,252,36.9,252,36.9c0-0.1,0-0.1-0.1-0.1c0,0,0,0.1-0.1,0.1C251.9,36.9,251.9,37,252,36.9C252,37,252,37,252,36.9z
			 M252,45.9L252,45.9L252,45.9L252,45.9z M252.1,16.6c0,0,0.1,0,0.1-0.1c0-0.1,0-0.2,0-0.3c0,0,0-0.1,0-0.1s0-0.1-0.1-0.1
			c-0.1,0-0.1,0.1-0.2,0.1c0,0.1-0.1,0.2-0.1,0.3c0,0,0,0.1,0,0.1C252,16.6,252,16.6,252.1,16.6z M251.5,21c0,0,0.1,0,0.1,0
			c0-0.1,0-0.1,0-0.2c0-0.1-0.1-0.1-0.2-0.2l0,0c0,0,0,0,0,0c0,0,0,0,0,0c0,0,0,0,0,0c0,0,0,0,0,0c0,0,0,0,0,0v0
			C251.4,20.8,251.4,20.9,251.5,21z M251.4,25C251.4,25,251.4,25,251.4,25C251.5,25.1,251.5,25.1,251.4,25
			C251.5,25,251.4,25,251.4,25z M251.8,17.1C251.8,17.1,251.7,17.1,251.8,17.1c-0.1-0.1-0.1-0.1-0.1,0c0,0,0,0.1,0,0.1
			C251.7,17.2,251.7,17.2,251.8,17.1z M251.1,16.4C251.1,16.4,251,16.4,251.1,16.4C251.1,16.4,251.1,16.4,251.1,16.4
			C251.1,16.4,251.2,16.4,251.1,16.4C251.2,16.4,251.1,16.4,251.1,16.4z M250.3,28c0.1,0,0.1,0.1,0.1,0.1c0,0,0.1,0,0.1-0.1
			s0.1-0.1,0.1-0.1s-0.1-0.1-0.2-0.1C250.4,27.9,250.4,27.9,250.3,28z M250.3,14.9L250.3,14.9L250.3,14.9L250.3,14.9z M250,20.6
			L250,20.6L250,20.6L250,20.6z M249.9,27.9L249.9,27.9L249.9,27.9L249.9,27.9z M249.3,16c0,0.1,0,0.1,0.1,0.2c0,0.1,0.1,0.1,0.2,0
			c0.1-0.1,0.2-0.2,0.3-0.3c0,0,0,0,0-0.1c0,0-0.1-0.1-0.1-0.1C249.6,15.7,249.4,15.8,249.3,16z M249.6,22.4c0,0-0.1,0-0.1,0
			c0,0,0,0,0,0.1C249.4,22.5,249.5,22.5,249.6,22.4C249.6,22.5,249.6,22.5,249.6,22.4z M249.4,13.8c0,0-0.1,0-0.1,0.1
			c0,0.1,0,0.1-0.1,0.2c0,0.1,0,0.2,0.1,0.2c0.1,0,0.2-0.2,0.2-0.3C249.6,13.9,249.5,13.8,249.4,13.8z M248.1,10.5
			C248.2,10.5,248.2,10.5,248.1,10.5C248.2,10.5,248.2,10.5,248.1,10.5C248.2,10.5,248.2,10.5,248.1,10.5
			C248.2,10.5,248.2,10.5,248.1,10.5z M247.7,16.5c0,0.1,0.2,0.3,0.3,0.3c0.2,0,0.4-0.1,0.6-0.2c0,0,0-0.1,0-0.1
			c0,0-0.1-0.1-0.1-0.1C248.3,16.4,248.1,16.5,247.7,16.5C247.8,16.5,247.7,16.5,247.7,16.5z M248.7,17c0,0.1-0.1,0.1-0.1,0.2
			c0,0,0.1,0.1,0.1,0.1c0,0,0.1,0,0.1,0c0-0.1,0.1-0.1,0.1-0.2c0,0,0-0.1,0-0.1C248.8,17,248.7,17,248.7,17z M248.5,22.2L248.5,22.2
			L248.5,22.2L248.5,22.2z M248,22.6L248,22.6L248,22.6L248,22.6z M248,37.7C248,37.8,248.1,37.8,248,37.7
			C248.1,37.7,248.1,37.7,248,37.7C248,37.7,248,37.7,248,37.7z M247.5,36.2c0,0,0.1-0.1,0.1-0.1c0,0,0-0.1,0-0.1
			c0,0-0.1-0.1-0.1-0.1c0,0-0.1,0-0.1,0.1c0,0-0.1,0.1-0.1,0.2C247.3,36.3,247.4,36.3,247.5,36.2z M247.5,36.8
			C247.4,36.8,247.4,36.8,247.5,36.8c-0.1,0-0.1,0.1-0.1,0.1c0,0.1,0.1,0.1,0.1,0C247.5,36.9,247.5,36.8,247.5,36.8z M247.2,19.3
			c0,0,0,0.1,0,0.1c0,0.1,0,0.1,0.1,0.1c0,0,0,0,0,0c0,0,0,0,0,0c0,0,0,0,0,0c0,0,0,0,0,0c0,0,0,0,0,0c0,0,0,0,0,0
			C247.2,19.4,247.2,19.4,247.2,19.3C247.2,19.3,247.2,19.3,247.2,19.3C247.2,19.3,247.1,19.3,247.2,19.3L247.2,19.3L247.2,19.3
			c0.4,0.1,0.4,0.1,0.6-0.1c-0.2-0.1-0.3-0.2-0.4-0.3C247.3,19.1,247.2,19.2,247.2,19.3C247.1,19.3,247.1,19.3,247.2,19.3
			C247.1,19.3,247.1,19.3,247.2,19.3z M247.4,19.9c-0.1,0-0.1,0-0.1,0.1c0,0.1,0,0.1,0,0.2c0,0.1,0.1,0.1,0.2,0c0,0,0.1-0.1,0.1-0.1
			C247.5,20,247.4,20,247.4,19.9z M247.2,47.8C247.2,47.8,247.2,47.9,247.2,47.8c0.1,0.1,0.2,0.1,0.2,0c0,0,0-0.1,0-0.1
			C247.3,47.6,247.2,47.7,247.2,47.8z M247.6,47.9L247.6,47.9L247.6,47.9L247.6,47.9z M247.6,48.9c0,0,0.1,0,0.1,0c0,0,0,0,0,0
			s0-0.1,0-0.1C247.7,48.9,247.7,48.9,247.6,48.9C247.6,48.9,247.6,48.9,247.6,48.9z M247.8,21.9C247.8,21.9,247.8,21.9,247.8,21.9
			c0.1-0.1,0-0.2,0-0.2c0,0-0.1,0-0.1,0c0,0,0,0,0,0c0,0,0,0,0,0c0,0,0,0,0,0c0,0,0,0,0,0c0,0,0.1,0.1,0.1,0.1
			C247.7,22,247.7,22,247.8,21.9z M247.2,10C247.2,10,247.3,10,247.2,10c0.1,0,0.1,0,0.1-0.1c0,0-0.1,0-0.1-0.1
			C247.2,9.9,247.2,10,247.2,10z M246.2,11c0.2,0.4,0.4,0.5,0.8,0.4c0.2-0.1,0.4-0.2,0.6-0.3c0.1,0,0.1-0.1,0.1-0.2
			c-0.2-0.3-0.5-0.4-0.9-0.5c-0.1,0.1-0.1,0.2-0.2,0.3c-0.1,0.1-0.2,0.2-0.3,0.2C246.2,10.9,246.2,10.9,246.2,11
			C246.2,11,246.2,11,246.2,11z M247,11.9C247,11.8,247,11.8,247,11.9c-0.2-0.2-0.4-0.1-0.5,0c0,0,0,0,0,0.1c0,0,0,0.1,0,0.1
			C246.7,12.1,246.9,12,247,11.9C247,11.9,247,11.9,247,11.9z M247,22.7L247,22.7L247,22.7L247,22.7z M246.8,54.1
			C246.9,54.1,246.9,54.1,246.8,54.1C246.9,54,246.9,54,246.8,54.1C246.8,54,246.8,54.1,246.8,54.1z M246.8,20.4L246.8,20.4
			L246.8,20.4L246.8,20.4z M246.9,19.9C246.9,19.9,246.9,19.9,246.9,19.9C246.9,19.9,246.9,19.9,246.9,19.9L246.9,19.9
			C246.9,19.9,246.9,19.9,246.9,19.9C246.9,20,246.9,20,246.9,19.9z M246.6,46L246.6,46C246.5,46.1,246.5,46.1,246.6,46
			C246.5,46.1,246.5,46.1,246.6,46C246.6,46.1,246.6,46.1,246.6,46z M246.3,36C246.2,36,246.2,36,246.3,36
			C246.2,36,246.2,36,246.3,36C246.2,36.1,246.2,36.1,246.3,36C246.3,36.1,246.3,36,246.3,36z M246,19.4C246,19.4,246,19.4,246,19.4
			c-0.1,0.1,0,0.1,0,0.1c0.1,0,0.1,0,0.1,0C246.1,19.4,246.1,19.4,246,19.4C246.1,19.4,246,19.4,246,19.4z M245.8,13
			c0,0-0.1,0-0.1,0l0,0c0,0,0,0,0,0C245.7,13,245.7,13,245.8,13C245.7,13,245.7,13,245.8,13C245.7,13,245.8,13,245.8,13
			C245.8,13,245.8,13,245.8,13c0.1,0,0.2,0,0.2,0c0,0,0-0.1,0-0.1c0,0,0,0-0.1,0C245.8,12.9,245.8,12.9,245.8,13z M245.6,11.5
			C245.6,11.5,245.6,11.5,245.6,11.5C245.6,11.5,245.7,11.5,245.6,11.5C245.7,11.4,245.7,11.4,245.6,11.5c0.1-0.1,0.1-0.1,0-0.1
			C245.6,11.4,245.6,11.4,245.6,11.5z M245.3,20.5C245.3,20.6,245.3,20.6,245.3,20.5c0.1,0,0.1,0,0.2,0
			C245.4,20.5,245.4,20.5,245.3,20.5C245.3,20.5,245.3,20.5,245.3,20.5z M244.4,10.1c0,0.1,0.1,0.2,0.2,0.2c0,0,0,0,0.1,0
			c0.2,0,0.3,0.1,0.4,0.3c0,0,0.1,0,0.1,0c0,0,0.1-0.1,0.1-0.1c0-0.1,0-0.2-0.1-0.3c-0.1-0.2-0.3-0.3-0.5-0.3
			C244.5,9.8,244.4,9.9,244.4,10.1z M242.5,11.3c-0.1,0.1-0.1,0.2,0,0.4c0.1,0.1,0.2,0.1,0.3,0c0-0.1,0-0.2,0-0.3
			c0.2-0.1,0.3-0.2,0.5-0.3c0.1,0.1,0.2,0.1,0.2,0.2c0.1,0,0.1,0,0.2,0.1c0.1,0,0.2-0.1,0.2-0.1c0-0.2,0-0.3-0.2-0.5
			c0,0-0.1-0.1-0.2-0.1c-0.1,0-0.1,0.1-0.2,0.1c-0.2,0.1-0.2,0.1-0.4,0c-0.1-0.1-0.2-0.1-0.2-0.1c-0.1,0.1-0.2,0.2-0.3,0.2
			C242.5,11.1,242.6,11.2,242.5,11.3z M243.9,18.7c0,0-0.1-0.1-0.1-0.2c-0.1,0.1-0.1,0.1-0.2,0.2c0,0.1,0,0.1,0.1,0.1
			C243.8,18.8,243.9,18.8,243.9,18.7z M243.5,20.3c0,0-0.1,0-0.1,0.1c0,0,0,0,0,0.1c0.1,0.2,0.2,0.2,0.3,0.2c0.1,0,0.2-0.1,0.2-0.2
			c0,0,0-0.1,0-0.1C243.8,20.4,243.7,20.4,243.5,20.3z M243.8,13.8c-0.1-0.1-0.2-0.2-0.3-0.3c-0.2,0-0.4,0-0.5,0
			c-0.4,0-0.7,0.3-0.5,0.7c0,0.1,0.2,0.1,0.2,0c0,0,0.1-0.1,0.1-0.1c0-0.1,0-0.1,0.1-0.2c0.1-0.1,0.2-0.1,0.3-0.1
			c0.1,0.1,0.2,0.2,0.3,0.2c0.1,0,0.2,0,0.3,0S243.9,13.9,243.8,13.8z M243.1,14.6c0,0-0.1-0.1-0.2-0.1c-0.1,0-0.2,0.1-0.2,0.3
			c0,0.1,0,0.2,0.1,0.3c0.1,0,0.2,0,0.2,0C243.2,14.9,243.2,14.8,243.1,14.6z M243.1,18.3C243,18.4,243,18.4,243.1,18.3
			C243,18.5,243.1,18.5,243.1,18.3C243.1,18.4,243.1,18.4,243.1,18.3z M242.6,24.3L242.6,24.3L242.6,24.3L242.6,24.3z M242.5,31
			C242.5,31,242.5,31,242.5,31C242.5,31.1,242.5,31.1,242.5,31c0.1,0.1,0.1,0.1,0.1,0.1C242.6,31,242.5,31,242.5,31z M242.3,27.1
			c0,0,0,0.1,0.1,0.1c0,0,0.1,0,0.1,0c0,0,0-0.1,0.1-0.1C242.4,27.1,242.4,27.1,242.3,27.1C242.3,27.1,242.3,27.1,242.3,27.1z
			 M241.2,13.6c-0.1,0-0.1,0.1-0.1,0.2c0,0,0.1,0.1,0.1,0.1c0.2,0,0.5,0,0.7-0.1c0,0,0.1-0.1,0.1-0.1c-0.1-0.1-0.2-0.1-0.3-0.1
			C241.6,13.4,241.4,13.5,241.2,13.6z M241.8,21c0.1-0.1,0.1-0.3,0-0.4c0-0.1-0.1-0.2-0.1-0.2c-0.1,0-0.2,0.1-0.2,0.2
			c0,0.1-0.1,0.2-0.3,0.2c-0.2,0.1-0.2,0.1-0.2,0.3c0,0.1,0.1,0.2,0.1,0.3c0.2,0,0.3,0,0.5,0c0,0,0,0,0.1,0
			C241.8,21.2,241.7,21.1,241.8,21z M241.7,24.3C241.6,24.3,241.6,24.3,241.7,24.3c0,0.1,0,0.1,0,0.1
			C241.7,24.4,241.7,24.4,241.7,24.3C241.7,24.3,241.7,24.3,241.7,24.3z M241.4,46.2C241.4,46.2,241.3,46.2,241.4,46.2
			c0,0.1,0,0.1,0,0.2C241.4,46.3,241.4,46.3,241.4,46.2C241.4,46.2,241.4,46.2,241.4,46.2z M241.2,45.7L241.2,45.7L241.2,45.7
			L241.2,45.7z M240.6,13.7c0,0.1,0.1,0.1,0.2,0c0.1,0,0.1-0.1,0.2-0.1c0-0.1,0-0.2-0.1-0.3c-0.1-0.1-0.2-0.1-0.3-0.1
			c-0.1,0-0.1,0.1-0.1,0.3C240.5,13.5,240.6,13.6,240.6,13.7z M240.5,18.2L240.5,18.2L240.5,18.2L240.5,18.2z M240.8,18.7
			C240.8,18.8,240.8,18.8,240.8,18.7c0.2,0,0.4,0,0.6-0.2c0,0,0-0.1,0-0.1c0-0.1-0.1-0.1-0.1-0.1C241.1,18.5,241,18.7,240.8,18.7
			C240.8,18.7,240.8,18.7,240.8,18.7z M241.9,20.1c0,0,0.1,0,0.1-0.1c0,0,0-0.1-0.1-0.1c0,0-0.1,0-0.1,0c-0.1,0-0.1,0.1,0,0.1
			C241.8,20.1,241.9,20.1,241.9,20.1z M242,17.6L242,17.6L242,17.6L242,17.6z M242.1,16.6c0-0.1-0.1-0.1-0.1-0.2
			c-0.1,0-0.2-0.1-0.3-0.1c-0.1,0-0.2,0-0.2,0.1c-0.1,0.2,0,0.3,0.2,0.4c0.1,0,0.1,0,0.2,0C242,16.9,242.1,16.7,242.1,16.6z
			 M240.1,11.6c0.1,0,0.2,0,0.3,0.1c0.2,0.1,0.2,0.4,0.1,0.5c-0.1,0.1-0.2,0.3-0.3,0.4c0.3,0.1,0.5,0,0.7-0.2c0-0.2,0-0.4,0.1-0.6
			c0-0.1,0.1-0.2,0.2-0.2c0.1,0,0.2,0,0.3,0c0.1,0,0.1-0.1,0-0.1c-0.2-0.2-0.3-0.5-0.2-0.7c0,0,0,0,0-0.1c0-0.1-0.1-0.1-0.2-0.1
			c-0.3,0.1-0.5,0.2-0.7,0.6C240.3,11.3,240.2,11.4,240.1,11.6z M239.9,19.2c0,0,0.1,0,0.1,0C240,19.1,240,19.1,239.9,19.2
			C240,19.1,239.9,19.1,239.9,19.2C239.9,19.1,239.9,19.2,239.9,19.2z M240.1,20.4L240.1,20.4L240.1,20.4L240.1,20.4z M240.2,14.7
			c0.1-0.1,0.2-0.2,0.2-0.3c0,0,0,0,0-0.1c0,0,0,0-0.1,0C240.2,14.4,240.1,14.5,240.2,14.7C240.1,14.7,240.1,14.7,240.2,14.7
			C240.2,14.7,240.2,14.7,240.2,14.7z M240.5,16.5c0-0.1-0.1-0.1-0.2,0c0,0,0,0,0,0c0,0,0,0.1,0.1,0.1
			C240.4,16.6,240.4,16.6,240.5,16.5C240.5,16.6,240.5,16.6,240.5,16.5z M239.6,32.6C239.6,32.6,239.6,32.6,239.6,32.6
			C239.6,32.6,239.6,32.6,239.6,32.6C239.6,32.6,239.6,32.6,239.6,32.6C239.6,32.6,239.6,32.6,239.6,32.6z M239.2,43.6
			C239.3,43.7,239.3,43.7,239.2,43.6C239.3,43.6,239.3,43.6,239.2,43.6C239.3,43.6,239.2,43.6,239.2,43.6z M237.3,43.1L237.3,43.1
			L237.3,43.1L237.3,43.1z M237.2,51.4c0,0,0.1,0,0.1,0c0,0,0,0,0.1,0C237.3,51.3,237.2,51.3,237.2,51.4
			C237.2,51.3,237.2,51.3,237.2,51.4z M236.7,39.6L236.7,39.6L236.7,39.6L236.7,39.6z M235.9,77.6c-0.1,0-0.1,0-0.1,0.1
			c0,0.1,0,0.1,0.1,0.1c0,0,0.1,0,0.1-0.1C236,77.7,236,77.6,235.9,77.6z M236.1,78.5L236.1,78.5L236.1,78.5L236.1,78.5z
			 M238.9,72.3C238.9,72.2,238.8,72.2,238.9,72.3C238.8,72.2,238.8,72.3,238.9,72.3C238.8,72.3,238.9,72.3,238.9,72.3z M239.5,60.7
			C239.5,60.7,239.5,60.7,239.5,60.7C239.5,60.7,239.5,60.7,239.5,60.7C239.4,60.7,239.4,60.7,239.5,60.7
			C239.5,60.8,239.5,60.7,239.5,60.7z M239.8,63.1C239.8,63.1,239.8,63.1,239.8,63.1C239.8,63.1,239.7,63.1,239.8,63.1
			C239.7,63.2,239.8,63.2,239.8,63.1z M240.7,61.2C240.7,61.2,240.7,61.1,240.7,61.2C240.6,61.1,240.6,61.1,240.7,61.2
			C240.5,61.2,240.6,61.2,240.7,61.2C240.6,61.2,240.7,61.2,240.7,61.2z M241,68c0,0,0.1,0,0.1,0c0,0,0.1-0.1,0.1-0.1
			c0,0-0.1-0.1-0.2-0.1c-0.1,0-0.1,0-0.1,0.1C240.9,67.9,240.9,68,241,68z M241,74.5L241,74.5L241,74.5L241,74.5z M241.3,75.7
			C241.3,75.7,241.2,75.7,241.3,75.7c-0.1,0-0.1,0-0.2,0c0,0,0,0,0,0.1c0,0,0,0.1,0,0.1C241.2,75.9,241.3,75.8,241.3,75.7z
			 M241.3,55.3L241.3,55.3L241.3,55.3L241.3,55.3z M242,67.8C242,67.8,242,67.8,242,67.8c-0.1,0-0.1,0-0.1,0
			C241.9,67.8,241.9,67.8,242,67.8C242,67.9,242,67.8,242,67.8z M242.6,66.2C242.5,66.2,242.5,66.2,242.6,66.2
			c-0.2,0-0.2,0.1-0.3,0.2c0,0,0,0,0.1,0C242.5,66.5,242.6,66.3,242.6,66.2z M242.7,73.9C242.7,73.9,242.7,73.9,242.7,73.9
			C242.6,73.8,242.6,73.8,242.7,73.9C242.6,73.9,242.6,73.9,242.7,73.9C242.6,73.9,242.7,73.9,242.7,73.9z M243.1,59.8
			c0,0-0.1,0-0.1,0c0,0-0.1,0-0.1,0c0,0,0.1,0,0.1,0C243,59.8,243.1,59.8,243.1,59.8z M242.9,52.3L242.9,52.3L242.9,52.3L242.9,52.3
			z M242.9,50.9C243,50.9,243,50.9,242.9,50.9C243,50.9,243,50.9,242.9,50.9C242.9,50.9,242.9,50.9,242.9,50.9
			C242.9,50.9,242.9,50.9,242.9,50.9C242.9,50.9,243,51,242.9,50.9C243,51,243,51,242.9,50.9C243,51,243,51,242.9,50.9
			C243,51,243,50.9,242.9,50.9z M243.5,53C243.6,53,243.5,53,243.5,53c-0.1-0.1-0.1-0.1-0.1-0.1C243.5,53,243.5,53.1,243.5,53
			C243.5,53.1,243.5,53.1,243.5,53z M243.7,79.1c0,0,0-0.1,0-0.1C243.7,79,243.6,79,243.7,79.1C243.6,79.1,243.6,79.2,243.7,79.1
			C243.7,79.2,243.7,79.1,243.7,79.1z M244.1,55.3c0-0.1-0.1-0.1-0.1-0.2c0,0-0.1,0-0.1,0.1c0,0,0,0.1,0,0.1
			C243.9,55.3,243.9,55.3,244.1,55.3C244,55.3,244.1,55.3,244.1,55.3z M244.1,43.9l0-0.7l0-0.7c0-0.2,0-0.4,0-0.7c0-0.2,0-0.4,0-0.7
			c-0.1-0.5-0.5-0.8-1-0.8c-0.5,0-0.9,0.3-1.1,0.8c0,0.1,0,0.3,0,0.3l0,0.3l0,0.6l0,0.6c0,0.2,0,0.4,0,0.6c0,0.4,0,0.9,0,1.3
			c0,0.9-0.2,1.7-0.3,2.6c-0.1,0.2-0.1,0.4-0.2,0.6c-0.1,0.2-0.1,0.4-0.2,0.6c-0.1,0.4-0.3,0.8-0.4,1.2c-0.3,0.8-0.6,1.6-1,2.3
			c-0.1,0.2-0.2,0.4-0.3,0.6c-0.1,0.2-0.2,0.4-0.3,0.6c-0.1,0.1-0.1,0.2-0.2,0.3l-0.2,0.3c-0.1,0.1-0.1,0.2-0.2,0.2
			c-0.1,0.1-0.1,0.2-0.2,0.2c-0.1,0.1-0.2,0.1-0.2,0.2c-0.1,0.1-0.2,0.1-0.3,0.2c-0.2,0.1-0.4,0.2-0.6,0.3c-0.2,0.1-0.4,0.1-0.6,0.2
			c-0.2,0-0.4,0.1-0.6,0.2c-0.2,0.1-0.4,0.3-0.5,0.5c-0.1,0.2-0.1,0.5-0.1,0.7c0.1,0.4,0.5,0.8,1,0.8v0c0.1,0,0.1,0,0.2,0
			c0.4-0.1,0.8-0.2,1.2-0.4c0.1,0,0.1,0,0.2,0c0.1,0,0.2-0.1,0.3-0.1c0.2-0.1,0.4-0.2,0.6-0.3c0.2-0.1,0.4-0.2,0.6-0.3
			c0.2-0.1,0.4-0.2,0.5-0.4s0.3-0.3,0.5-0.5c0.1-0.2,0.2-0.4,0.3-0.6c0.1-0.2,0.2-0.4,0.4-0.5l0.4-0.5c0.1-0.2,0.2-0.4,0.3-0.6
			l0.2-0.6c0.1-0.4,0.3-0.8,0.4-1.2c0.1-0.2,0.2-0.4,0.2-0.6c0.1-0.2,0.1-0.4,0.2-0.6c0.1-0.4,0.3-0.8,0.4-1.2
			c0.1-0.4,0.2-0.8,0.3-1.3c0-0.2,0.1-0.4,0.1-0.6c0-0.2,0.1-0.4,0.1-0.6c0.1-0.4,0.1-0.9,0.1-1.3c0-0.2,0-0.4,0-0.7
			C244.1,44.3,244.1,44.1,244.1,43.9z M244.2,13.5c-0.2-0.3-0.3-0.7-0.4-1c0-0.1,0-0.1,0.1-0.2c0,0,0.1,0,0.1,0
			c0.1,0,0.1-0.1,0.1-0.2c-0.1-0.1-0.1-0.2-0.2-0.4c0,0-0.1-0.1-0.1-0.1c-0.1,0-0.2,0.1-0.3,0.2c0,0,0,0.1,0,0.1
			c0.1,0.1,0.1,0.2,0,0.4c-0.1,0.2-0.2,0.3-0.3,0.5c-0.1,0.1-0.1,0.2-0.2,0.3c0,0,0.1,0.2,0.1,0.2c0.1,0,0.2,0,0.4-0.1
			c0.2-0.1,0.4,0,0.5,0.1C244.1,13.4,244.2,13.4,244.2,13.5z M244.3,9.9C244.3,9.9,244.3,9.9,244.3,9.9c0-0.1,0-0.2,0.1-0.2
			c0-0.1,0-0.1-0.1-0.1c0,0,0,0,0,0.1C244.2,9.8,244.3,9.9,244.3,9.9L244.3,9.9C244.2,9.9,244.2,9.9,244.3,9.9c-0.1,0-0.1,0-0.1,0
			s0,0-0.1,0c0,0,0,0,0,0c0,0.1,0.1,0.1,0.1,0C244.2,9.9,244.2,9.9,244.3,9.9C244.2,10,244.2,10,244.3,9.9z M244.4,13.9
			C244.4,14,244.5,13.9,244.4,13.9c0.1-0.1,0.1-0.1,0-0.1C244.3,13.8,244.3,13.8,244.4,13.9C244.3,13.9,244.4,13.9,244.4,13.9z
			 M244.5,49.7C244.5,49.7,244.4,49.6,244.5,49.7C244.4,49.6,244.4,49.7,244.5,49.7C244.4,49.7,244.4,49.7,244.5,49.7z M244.6,19.8
			C244.6,19.8,244.6,19.8,244.6,19.8c0-0.1,0-0.1-0.1-0.1c0,0-0.1,0-0.1,0c0,0,0,0.1,0,0.1C244.5,19.8,244.5,19.8,244.6,19.8z
			 M244.7,22.3C244.7,22.3,244.7,22.3,244.7,22.3C244.7,22.4,244.6,22.4,244.7,22.3C244.6,22.4,244.6,22.4,244.7,22.3
			c-0.1,0.1-0.1,0.1-0.1,0.1C244.6,22.4,244.6,22.4,244.7,22.3C244.6,22.4,244.6,22.4,244.7,22.3C244.7,22.4,244.7,22.4,244.7,22.3
			C244.7,22.4,244.7,22.4,244.7,22.3z M244.9,49.5c0,0,0-0.1-0.1-0.1c-0.1,0-0.1,0.1-0.1,0.1c0,0,0,0.1,0.1,0.1
			C244.9,49.6,244.9,49.6,244.9,49.5z M245,15.3c0,0.1,0.1,0.1,0.2,0.1c0.1,0,0.1-0.1,0-0.1c0-0.1-0.1-0.1-0.1-0.2
			c0,0-0.1,0-0.1,0.1C244.9,15.2,244.9,15.3,245,15.3z M245.2,23.7C245.2,23.8,245.1,23.8,245.2,23.7
			C245.1,23.8,245.1,23.8,245.2,23.7C245.2,23.9,245.2,23.9,245.2,23.7C245.2,23.8,245.2,23.8,245.2,23.7z M245,19.7
			c0,0,0.1,0,0.1-0.1c0,0,0-0.1-0.1-0.1C245,19.5,245,19.6,245,19.7C245,19.6,245,19.7,245,19.7z M245.3,37.2c0.1,0,0.2,0,0.3-0.1
			c0,0,0-0.1,0-0.1c0-0.1-0.1-0.2-0.2-0.2c0,0-0.1,0-0.1,0.1c0,0-0.1,0.1-0.1,0.1c0,0,0,0.1,0,0.1C245.1,37.2,245.2,37.2,245.3,37.2
			z M245.6,45.1C245.5,45.1,245.5,45.1,245.6,45.1C245.5,45.1,245.5,45.2,245.6,45.1C245.5,45.2,245.6,45.2,245.6,45.1
			C245.6,45.1,245.6,45.1,245.6,45.1z M245.2,49.2c0.1,0.1,0.2,0.2,0.3,0.3c0-0.1,0.1-0.1,0-0.1c0-0.1-0.1-0.2-0.2-0.3
			c0,0-0.1,0-0.1,0C245.2,49.1,245.2,49.2,245.2,49.2z M245.4,68.5C245.4,68.5,245.4,68.5,245.4,68.5c0-0.1,0-0.1-0.1-0.1
			C245.3,68.4,245.3,68.4,245.4,68.5C245.3,68.5,245.4,68.5,245.4,68.5C245.4,68.5,245.4,68.5,245.4,68.5
			C245.4,68.5,245.4,68.5,245.4,68.5z M246.7,79.6C246.7,79.6,246.7,79.6,246.7,79.6c-0.1,0-0.1,0-0.1,0
			C246.6,79.6,246.6,79.6,246.7,79.6C246.7,79.6,246.7,79.6,246.7,79.6z M247.4,75.7c0-0.1-0.1-0.1-0.1-0.1c0,0,0,0,0,0.1
			C247.2,75.7,247.3,75.7,247.4,75.7C247.4,75.7,247.4,75.7,247.4,75.7z M247.9,61.3c0-0.1,0-0.3,0-0.4c0-0.1,0-0.2,0-0.4l0-0.4
			l0-0.4c0-0.3-0.1-0.6-0.3-0.8c-0.2-0.2-0.5-0.3-0.7-0.3c-0.3,0-0.6,0.1-0.8,0.3c-0.1,0.1-0.2,0.2-0.3,0.4
			c-0.1,0.1-0.1,0.3-0.1,0.4l0,0.4c0,0.1,0,0.3,0,0.4c0,0.2,0,0.5,0,0.8c0,0.5,0,1,0,1.5l0,0.4c0,0.1,0,0.2,0,0.4l-0.1,0.8
			c-0.1,0.5-0.1,1,0,1.5c0,0.2,0.1,0.5,0.1,0.8l0.1,0.4c0,0.1,0,0.1,0,0.2c0,0.1,0,0.1,0,0.2l0,0.2c0,0.1,0,0.1,0,0.2
			c0,0.1,0,0.3,0,0.4l-0.1,0.4c0,0.1,0,0.2,0,0.4c0,0.1,0,0.3,0.1,0.4c0.1,0.1,0.2,0.2,0.2,0.3c0.2,0.2,0.5,0.3,0.7,0.3v0
			c0.3,0,0.6-0.1,0.7-0.3c0.2-0.2,0.3-0.4,0.3-0.6l0-0.4c0-0.1,0-0.3,0-0.4c0-0.1,0-0.2,0-0.4c0-0.1-0.1-0.2-0.1-0.4
			c0-0.1,0-0.3,0-0.4l0-0.4c0-0.1,0-0.2,0-0.4l0-0.2l0-0.2c0-0.3-0.1-0.5,0-0.8c0-0.3,0-0.5,0-0.8c0-0.3,0-0.5,0.1-0.8l0.1-0.8
			c0-0.1,0-0.2,0-0.4c0-0.1,0-0.3,0-0.4C247.9,61.8,247.9,61.5,247.9,61.3z M248.1,52.7C248.1,52.6,248.1,52.6,248.1,52.7
			c-0.1-0.1-0.2,0-0.2,0c0,0,0,0,0.1,0C248,52.8,248.1,52.7,248.1,52.7z M248.1,19.3C248.1,19.2,248.1,19.2,248.1,19.3
			c-0.1,0-0.1,0-0.1,0C248,19.3,248,19.3,248.1,19.3C248.1,19.3,248.1,19.3,248.1,19.3z M248.2,74.8
			C248.2,74.8,248.2,74.7,248.2,74.8C248.2,74.7,248.2,74.7,248.2,74.8C248.2,74.8,248.2,74.8,248.2,74.8
			C248.2,74.8,248.2,74.8,248.2,74.8z M248.2,47.9C248.3,47.8,248.2,47.8,248.2,47.9c-0.1,0-0.1,0-0.1,0.1
			C248.1,47.9,248.2,47.9,248.2,47.9C248.2,47.9,248.2,47.9,248.2,47.9z M248.4,65.6C248.4,65.6,248.4,65.6,248.4,65.6
			C248.3,65.6,248.3,65.6,248.4,65.6C248.3,65.6,248.3,65.6,248.4,65.6C248.3,65.7,248.4,65.7,248.4,65.6z M248.5,45.3
			C248.5,45.3,248.5,45.4,248.5,45.3c0.1,0.1,0.1,0,0.1,0c0.1-0.1,0-0.1,0-0.2c0,0-0.1,0-0.1,0C248.5,45.2,248.5,45.2,248.5,45.3
			C248.5,45.3,248.5,45.3,248.5,45.3z M248.6,59.9C248.6,59.9,248.6,59.9,248.6,59.9c-0.1,0-0.1,0-0.1,0
			C248.5,60,248.5,60,248.6,59.9C248.5,60,248.6,60,248.6,59.9z M248.6,58L248.6,58L248.6,58L248.6,58z M248.7,52.2
			C248.7,52.2,248.7,52.2,248.7,52.2C248.6,52.2,248.6,52.3,248.7,52.2C248.6,52.3,248.7,52.3,248.7,52.2
			C248.7,52.3,248.7,52.2,248.7,52.2z M248.9,28.6C248.9,28.6,248.9,28.6,248.9,28.6c0-0.1,0.1-0.1,0-0.1c-0.1-0.1-0.2-0.1-0.3,0
			c0,0,0,0.1,0,0.1C248.8,28.6,248.8,28.6,248.9,28.6z M249,35.9L249,35.9L249,35.9L249,35.9z M249.1,45.1
			C249.1,45.1,249.1,45.1,249.1,45.1C249.1,45.1,249,45.1,249.1,45.1C249,45.1,249,45.2,249.1,45.1
			C249.1,45.2,249.1,45.2,249.1,45.1z M249.3,13.5c0,0,0.1,0,0.1-0.1c0,0,0-0.1,0-0.1c0-0.2,0-0.3-0.2-0.3c-0.1,0-0.2-0.1-0.4-0.1
			c0,0,0,0-0.1,0c0,0-0.1,0.1-0.1,0.1c0,0,0,0.1,0,0.1c0.2,0.1,0.4,0.2,0.4,0.4C249.2,13.5,249.3,13.5,249.3,13.5z M249.4,53.8
			c0,0-0.1-0.1-0.1-0.1c0,0-0.1,0-0.1,0c0,0,0,0.1,0,0.1C249.3,53.8,249.3,53.8,249.4,53.8C249.4,53.8,249.4,53.8,249.4,53.8z
			 M249.5,52.9C249.5,52.8,249.4,52.8,249.5,52.9c-0.1,0-0.1,0-0.1,0c0,0,0,0.1,0.1,0.1C249.4,52.9,249.5,52.9,249.5,52.9z
			 M250.1,69.1c0-0.1-0.1-0.1-0.1,0c0,0,0,0.1-0.1,0.1c0,0,0.1,0.1,0.1,0C250.1,69.2,250.1,69.1,250.1,69.1z M250.4,65.4
			c0,0,0-0.1-0.1-0.1c0,0-0.1,0-0.1,0c0,0,0,0.1,0,0.1C250.3,65.4,250.3,65.5,250.4,65.4C250.4,65.4,250.4,65.4,250.4,65.4z
			 M250.8,69.9L250.8,69.9L250.8,69.9L250.8,69.9z M250.8,68.2L250.8,68.2L250.8,68.2L250.8,68.2z M251.3,77.7L251.3,77.7
			L251.3,77.7L251.3,77.7z M251.8,70.6C251.8,70.6,251.8,70.5,251.8,70.6l-0.1-0.1c0,0,0,0,0,0c0,0,0,0,0,0
			C251.7,70.6,251.8,70.6,251.8,70.6C251.8,70.6,251.8,70.6,251.8,70.6z M252,71.7C252,71.7,252,71.7,252,71.7
			C251.9,71.7,251.9,71.8,252,71.7C252,71.8,252,71.8,252,71.7z M252.2,70.7L252.2,70.7L252.2,70.7L252.2,70.7z M252.4,66.1
			C252.4,66.1,252.4,66.1,252.4,66.1c-0.1,0-0.1,0-0.1,0C252.3,66.2,252.3,66.2,252.4,66.1C252.4,66.2,252.4,66.2,252.4,66.1z
			 M252.5,72.3C252.5,72.3,252.5,72.3,252.5,72.3c-0.1,0-0.1,0-0.1,0C252.4,72.4,252.5,72.4,252.5,72.3
			C252.5,72.4,252.5,72.4,252.5,72.3z M252.9,71.3c0,0-0.1,0-0.1-0.1c0,0-0.1,0-0.1,0c0,0-0.1,0.1-0.1,0.1c0,0,0.1,0.1,0.1,0.1
			C252.7,71.4,252.7,71.4,252.9,71.3C252.8,71.3,252.8,71.3,252.9,71.3z M252.8,69.1L252.8,69.1L252.8,69.1L252.8,69.1z M252.7,69.7
			C252.7,69.7,252.7,69.7,252.7,69.7c0,0.1,0,0.1,0.1,0.1c0,0,0,0,0,0C252.8,69.8,252.8,69.7,252.7,69.7z M252.7,66.9
			C252.7,66.9,252.7,66.9,252.7,66.9C252.7,66.9,252.7,66.9,252.7,66.9C252.7,66.9,252.7,66.9,252.7,66.9
			C252.7,66.9,252.8,66.9,252.7,66.9z M252.9,70.5c0-0.1,0-0.1-0.1-0.2c0,0-0.1,0-0.2,0c0,0.1,0.1,0.1,0.1,0.2c0,0,0.1,0,0.1,0.1
			C252.9,70.6,252.9,70.5,252.9,70.5z M253.1,77.9C253.1,77.9,253,77.9,253.1,77.9C253,77.9,253,77.9,253.1,77.9
			C253,78,253,78,253.1,77.9C253,78,253.1,78,253.1,77.9z M253.2,72C253.2,72,253.1,72,253.2,72c-0.1,0-0.1,0-0.1,0
			C253.1,72.1,253.1,72.1,253.2,72C253.2,72.1,253.2,72.1,253.2,72z M253.3,70.6C253.4,70.6,253.3,70.6,253.3,70.6
			C253.3,70.6,253.3,70.6,253.3,70.6C253.3,70.6,253.3,70.6,253.3,70.6C253.3,70.6,253.3,70.6,253.3,70.6z M254.1,73.9
			c0,0-0.1,0-0.1-0.1c0,0,0,0.1-0.1,0.1c0,0,0,0,0.1,0C254,74,254.1,74,254.1,73.9C254.1,74,254.1,74,254.1,73.9z M254.5,75
			C254.5,75,254.5,75,254.5,75C254.5,75,254.6,75,254.5,75C254.6,75,254.6,75,254.5,75z M255,69.9c0-0.1,0-0.1,0-0.2
			c0,0-0.1,0-0.1,0c0,0,0,0,0,0.1C254.8,69.8,254.8,69.9,255,69.9C255,69.9,255,69.9,255,69.9z M255.2,74.5
			C255.2,74.5,255.2,74.4,255.2,74.5C255.1,74.4,255.1,74.5,255.2,74.5C255.1,74.5,255.2,74.5,255.2,74.5z M255.2,71.3
			c0,0,0-0.1,0-0.1c0,0-0.1,0-0.1,0c0,0,0,0.1-0.1,0.1c0,0.1,0,0.1,0.1,0.1c0,0,0.1,0,0.1,0C255.2,71.4,255.2,71.4,255.2,71.3z
			 M255.2,70.6c0,0-0.1,0-0.1,0.1c0,0,0,0.1,0.1,0.1c0.1,0,0.1,0,0.1-0.1C255.2,70.7,255.2,70.6,255.2,70.6z M255.3,70.3L255.3,70.3
			L255.3,70.3L255.3,70.3z M255.7,65.2c0,0-0.1,0-0.1,0c0,0-0.1,0.1,0,0.1c0,0.1,0.1,0.1,0.1,0.2c0.1,0,0.1,0,0.1-0.1
			C255.8,65.4,255.7,65.3,255.7,65.2z M256.2,77.6c0-0.1-0.1-0.1-0.1-0.2c0,0.1,0,0.2,0,0.2S256.1,77.7,256.2,77.6
			C256.1,77.7,256.2,77.6,256.2,77.6z M256.7,72.6C256.7,72.6,256.7,72.6,256.7,72.6C256.7,72.6,256.7,72.7,256.7,72.6
			c-0.1,0.1-0.1,0.2-0.1,0.2c0,0,0,0,0,0l0,0l0,0v0l0,0c0,0,0,0,0,0C256.7,72.8,256.7,72.8,256.7,72.6
			C256.7,72.7,256.7,72.7,256.7,72.6C256.7,72.6,256.7,72.6,256.7,72.6L256.7,72.6C256.7,72.7,256.7,72.7,256.7,72.6
			C256.7,72.7,256.7,72.6,256.7,72.6z M256.8,73.6L256.8,73.6L256.8,73.6L256.8,73.6z M257.2,77.5C257.2,77.5,257.2,77.5,257.2,77.5
			C257.2,77.5,257.2,77.5,257.2,77.5C257.2,77.5,257.2,77.5,257.2,77.5C257.2,77.5,257.2,77.5,257.2,77.5z M257.8,69.2
			c0-0.1-0.1-0.1-0.1,0c-0.1,0-0.1,0.1,0,0.1c0,0,0.1,0,0.1,0.1C257.7,69.2,257.8,69.2,257.8,69.2z M257.8,56.2
			c-0.1-0.2-0.3-0.4-0.5-0.5c-0.2-0.1-0.4-0.2-0.6-0.2c-0.2-0.1-0.4-0.2-0.6-0.3c-0.2-0.1-0.4-0.2-0.5-0.3c-0.2-0.1-0.4-0.2-0.6-0.3
			c-0.2-0.1-0.3-0.3-0.5-0.4l-0.2-0.2c-0.1-0.1-0.1-0.2-0.2-0.3c-0.1-0.2-0.2-0.3-0.4-0.5c-0.1-0.1-0.1-0.2-0.2-0.3l-0.2-0.3
			c-0.2-0.4-0.4-0.7-0.6-1.1c-0.2-0.4-0.3-0.8-0.4-1.2c-0.1-0.4-0.2-0.8-0.3-1.3c-0.1-0.4-0.1-0.8-0.2-1.3c0-0.2-0.1-0.4-0.1-0.6
			s-0.1-0.4-0.1-0.6c0-0.4-0.1-0.8-0.1-1.3c0-0.2-0.1-0.4-0.1-0.6c0-0.2,0-0.4-0.1-0.6l-0.1-0.6l0-0.6c0-0.2,0-0.4,0-0.6
			c0-0.2,0-0.4,0-0.7c-0.1-0.5-0.5-0.8-1-0.8c-0.5,0-0.9,0.3-1.1,0.8c0,0.1,0,0.1,0,0.2l0,0.5l0,0.7l0,0.6c0,0.2,0,0.4,0,0.7
			c0,0.4,0.1,0.9,0.1,1.3c0.1,0.9,0.2,1.7,0.3,2.6l0.1,0.6c0,0.2,0.1,0.4,0.1,0.6c0.1,0.4,0.1,0.9,0.2,1.3c0.2,0.9,0.4,1.7,0.8,2.5
			c0.1,0.2,0.2,0.4,0.3,0.6c0.1,0.2,0.3,0.4,0.4,0.5l0.4,0.5c0.1,0.1,0.1,0.2,0.2,0.2c0.1,0.1,0.1,0.2,0.2,0.2
			c0.1,0.1,0.1,0.2,0.2,0.2s0.1,0.2,0.2,0.2c0.1,0.2,0.3,0.3,0.4,0.5c0.1,0.2,0.3,0.3,0.5,0.5c0.2,0.2,0.3,0.3,0.5,0.4
			c0.1,0.1,0.2,0.1,0.3,0.2c0.1,0,0.2,0.1,0.3,0.1c0.1,0,0.2,0.1,0.3,0.1c0.1,0,0.2,0.1,0.3,0.1l0.3,0.1c0.1,0,0.2,0.1,0.3,0.1
			c0.2,0,0.4,0.1,0.6,0.1v0c0.4,0,0.8-0.3,0.9-0.8c0,0,0-0.1,0-0.1C257.9,56.6,257.9,56.4,257.8,56.2z M258,46.5L258,46.5L258,46.5
			C258,46.5,258,46.4,258,46.5C258,46.4,258,46.4,258,46.5C258,46.4,258,46.4,258,46.5C258,46.4,258,46.4,258,46.5
			C258,46.4,258,46.4,258,46.5C258,46.5,258,46.5,258,46.5z M258,70.7L258,70.7L258,70.7L258,70.7z M258,69.7
			C258,69.7,258,69.6,258,69.7C258,69.6,258,69.6,258,69.7C258,69.6,258,69.7,258,69.7C258,69.7,258,69.7,258,69.7z M258,57.4
			L258,57.4L258,57.4L258,57.4z M258.3,55.9C258.3,55.8,258.3,55.8,258.3,55.9c-0.1-0.1-0.1-0.1-0.2,0c0,0,0,0.1,0,0.1
			C258.2,55.9,258.2,55.9,258.3,55.9z M258.4,44.5c0,0,0-0.1,0-0.1C258.3,44.4,258.2,44.4,258.4,44.5
			C258.3,44.5,258.3,44.5,258.4,44.5C258.3,44.5,258.3,44.5,258.4,44.5z M259.1,44.2C259.1,44.2,259,44.2,259.1,44.2
			c-0.1,0-0.1,0-0.2,0c0,0,0,0,0,0C259,44.3,259,44.3,259.1,44.2z M259.5,43.4C259.5,43.4,259.5,43.3,259.5,43.4
			c0.1-0.1,0.1-0.2,0.1-0.2c-0.1-0.1-0.2-0.1-0.2-0.2c-0.1-0.2-0.3-0.2-0.4-0.3c-0.1,0-0.2,0.1-0.2,0.2c0,0.1-0.1,0.2-0.1,0.3
			c0,0.1-0.2,0.1-0.2,0c0-0.1-0.1-0.1-0.1-0.1c0,0,0,0,0,0c0,0,0,0,0,0c-0.1-0.1-0.1-0.2-0.2-0.4c0,0-0.1,0-0.1,0
			c-0.1,0.1-0.1,0.3,0,0.3c0.1,0,0.2,0,0.3,0c0,0,0,0,0,0c0,0,0,0,0,0c0,0.1,0,0.1,0,0.2c0,0.2,0,0.4,0,0.6c0,0,0.1,0.1,0.1,0.1
			c0.1,0,0.2,0,0.2-0.1c0.1-0.1,0.2-0.1,0.2-0.2c0.1-0.2,0.3-0.3,0.5-0.3C259.3,43.4,259.4,43.4,259.5,43.4z M259.5,43.8
			c0,0,0,0.1,0,0.1C259.5,43.9,259.6,43.9,259.5,43.8C259.6,43.8,259.5,43.8,259.5,43.8C259.5,43.8,259.5,43.8,259.5,43.8z
			 M259.6,52.1C259.6,52.1,259.5,52.1,259.6,52.1C259.5,52.1,259.5,52.2,259.6,52.1c-0.1,0.1,0,0.1,0,0.1
			C259.5,52.2,259.6,52.2,259.6,52.1C259.6,52.2,259.6,52.1,259.6,52.1z M260.1,37.9c0.1-0.1,0.2-0.1,0.3-0.2c0,0,0-0.1,0-0.1
			c0,0,0,0-0.1,0C260.1,37.5,260.1,37.6,260.1,37.9L260.1,37.9C260.1,37.9,260.2,37.9,260.1,37.9C260.1,37.9,260.1,37.9,260.1,37.9
			c-0.1-0.1-0.2-0.1-0.3,0c0,0,0,0,0,0v0c0,0,0.1-0.1,0.1-0.1c0-0.1,0-0.1-0.1-0.1c0,0,0,0,0,0.1c0,0,0,0.1,0.1,0.1l0,0l0,0
			c0,0,0,0,0,0C259.9,37.9,260,37.9,260.1,37.9C260.1,37.9,260.1,37.9,260.1,37.9z M260.3,44.4L260.3,44.4L260.3,44.4L260.3,44.4z
			 M260.5,53.2c0-0.1-0.1-0.1-0.1-0.1c0,0,0,0,0,0.1C260.4,53.2,260.4,53.2,260.5,53.2C260.4,53.2,260.5,53.2,260.5,53.2z
			 M260.5,45.5c0-0.1-0.1-0.1-0.1-0.1c0,0,0,0-0.1,0C260.4,45.5,260.4,45.5,260.5,45.5C260.5,45.5,260.5,45.5,260.5,45.5z
			 M260.6,46.2C260.6,46.2,260.6,46.2,260.6,46.2C260.6,46.1,260.6,46.1,260.6,46.2C260.5,46.1,260.5,46.1,260.6,46.2L260.6,46.2
			C260.5,46.2,260.5,46.2,260.6,46.2L260.6,46.2z M260.9,37.4c0-0.1,0-0.2-0.1-0.2c0,0,0,0-0.1,0C260.8,37.4,260.8,37.4,260.9,37.4
			C260.9,37.5,260.9,37.5,260.9,37.4z M261.2,43.7C261.2,43.7,261.2,43.7,261.2,43.7C261.2,43.7,261.2,43.7,261.2,43.7
			C261.2,43.7,261.2,43.8,261.2,43.7C261.2,43.8,261.2,43.7,261.2,43.7z M261.5,64.5L261.5,64.5L261.5,64.5L261.5,64.5z M262,44.5
			C262,44.5,261.9,44.5,262,44.5C261.9,44.5,261.9,44.5,262,44.5C261.9,44.6,261.9,44.5,262,44.5L262,44.5z M262.4,56.7
			c0,0,0-0.1,0-0.1C262.4,56.6,262.4,56.6,262.4,56.7C262.4,56.6,262.4,56.7,262.4,56.7C262.4,56.7,262.5,56.7,262.4,56.7z
			 M264.3,37.4C264.3,37.5,264.4,37.5,264.3,37.4c0.1,0,0.1-0.1,0.1-0.1c0,0,0,0,0,0C264.3,37.3,264.3,37.4,264.3,37.4z M263.5,53.8
			C263.6,53.8,263.5,53.8,263.5,53.8C263.5,53.7,263.5,53.7,263.5,53.8C263.4,53.8,263.4,53.8,263.5,53.8
			C263.5,53.8,263.5,53.8,263.5,53.8z M263.9,42.9L263.9,42.9L263.9,42.9L263.9,42.9z M264.2,62.4L264.2,62.4L264.2,62.4L264.2,62.4
			z M264.3,45.3C264.3,45.3,264.3,45.3,264.3,45.3C264.3,45.3,264.3,45.3,264.3,45.3C264.3,45.3,264.3,45.3,264.3,45.3
			C264.3,45.3,264.3,45.3,264.3,45.3z M264.5,51.8C264.5,51.8,264.4,51.8,264.5,51.8c-0.1,0-0.1,0-0.1,0
			C264.4,51.8,264.4,51.8,264.5,51.8C264.5,51.8,264.5,51.8,264.5,51.8z M264.6,39.9L264.6,39.9L264.6,39.9L264.6,39.9z M265.1,43.4
			c-0.1-0.2-0.3-0.2-0.5-0.1c0.1,0.1,0.3,0.2,0.4,0.3C265.2,43.5,265.2,43.5,265.1,43.4z M265.3,57.4L265.3,57.4L265.3,57.4
			L265.3,57.4z M265.4,56.9L265.4,56.9L265.4,56.9L265.4,56.9z M265.4,43C265.4,43,265.4,43,265.4,43c-0.1-0.1-0.1,0-0.1,0
			c0,0,0,0,0,0s0,0.1,0,0.1C265.3,43.1,265.4,43.1,265.4,43z M265.7,46.3C265.7,46.3,265.7,46.3,265.7,46.3c-0.1,0-0.1,0-0.2,0
			c0,0,0,0,0,0C265.7,46.4,265.7,46.4,265.7,46.3z M266.9,43.3L266.9,43.3L266.9,43.3L266.9,43.3z M267.5,39.6L267.5,39.6
			L267.5,39.6L267.5,39.6z M268.5,44.1L268.5,44.1L268.5,44.1L268.5,44.1z M269.2,43.4c0,0-0.1,0-0.1-0.1c0,0.1,0,0.1,0,0.2
			c0,0.1,0.1,0.1,0.1,0C269.2,43.5,269.2,43.5,269.2,43.4z M269.8,45.4L269.8,45.4L269.8,45.4L269.8,45.4z M270.6,60.1L270.6,60.1
			L270.6,60.1L270.6,60.1z M271,35.4C271,35.4,271,35.4,271,35.4C271,35.4,271,35.4,271,35.4C271,35.4,271,35.4,271,35.4
			C271,35.4,271,35.4,271,35.4z M272.9,45.1C272.9,45.1,272.9,45.1,272.9,45.1C272.8,45.1,272.8,45.1,272.9,45.1
			c-0.1,0-0.1,0.1-0.1,0.1C272.8,45.2,272.9,45.2,272.9,45.1z M273,46.1C273,46,273,46,273,46.1C273,46,272.9,46,273,46.1
			C272.9,46.1,273,46.1,273,46.1C273,46.1,273,46.1,273,46.1z M275.6,51.6L275.6,51.6L275.6,51.6L275.6,51.6z M278.3,48.5
			L278.3,48.5L278.3,48.5L278.3,48.5z M282.2,43.9C282.2,43.9,282.2,43.9,282.2,43.9c-0.1,0-0.1,0-0.1,0c0,0,0,0.1,0,0.1
			C282.2,44,282.2,44,282.2,43.9z M289,18.8L289,18.8L289,18.8L289,18.8z M287.6,25.6L287.6,25.6L287.6,25.6L287.6,25.6z
			 M286.5,14.1L286.5,14.1L286.5,14.1L286.5,14.1z M286.4,23.4L286.4,23.4L286.4,23.4L286.4,23.4z M286.6,21.4
			C286.6,21.4,286.6,21.4,286.6,21.4c-0.1,0-0.1,0-0.1,0C286.5,21.4,286.5,21.4,286.6,21.4C286.6,21.5,286.7,21.4,286.6,21.4z
			 M287.2,20.1C287.2,20.1,287.1,20.1,287.2,20.1c-0.1-0.1-0.2,0-0.2,0.1c0,0,0,0.1,0,0.1c0,0,0.1,0,0.1-0.1
			C287.1,20.3,287.1,20.2,287.2,20.1z M287.4,12.6L287.4,12.6L287.4,12.6L287.4,12.6z M287.5,22.4L287.5,22.4L287.5,22.4L287.5,22.4
			z M287.6,35.5C287.6,35.5,287.7,35.5,287.6,35.5C287.7,35.4,287.7,35.4,287.6,35.5C287.6,35.4,287.6,35.4,287.6,35.5
			C287.6,35.5,287.6,35.5,287.6,35.5z M287.8,36.2C287.8,36.2,287.7,36.2,287.8,36.2c-0.1,0-0.1,0-0.1,0
			C287.7,36.2,287.7,36.2,287.8,36.2C287.7,36.3,287.8,36.2,287.8,36.2C287.8,36.2,287.8,36.2,287.8,36.2z M288.1,19.1
			C288,19.1,288,19.1,288.1,19.1c-0.1,0-0.1,0-0.1,0C288,19.1,288,19.2,288.1,19.1C288,19.2,288,19.1,288.1,19.1z M288.3,51
			L288.3,51L288.3,51L288.3,51z M288.5,19.2c0,0,0.1-0.1,0.1-0.1c0-0.1-0.1-0.2-0.2-0.2c0,0-0.1,0.1-0.1,0.1
			C288.3,19.1,288.4,19.2,288.5,19.2z M288.5,26.2C288.5,26.2,288.5,26.2,288.5,26.2c-0.1,0-0.1,0-0.1,0
			C288.4,26.3,288.5,26.3,288.5,26.2C288.5,26.3,288.5,26.3,288.5,26.2z M288.7,49.5C288.7,49.5,288.7,49.5,288.7,49.5
			C288.7,49.5,288.6,49.5,288.7,49.5C288.6,49.5,288.7,49.6,288.7,49.5C288.7,49.6,288.7,49.5,288.7,49.5z M288.9,20
			c-0.2-0.1-0.3-0.1-0.5,0c0,0.1,0,0.1,0,0.1c0.1,0.1,0.2,0.2,0.2,0.4C289,20.5,288.9,20.2,288.9,20z M289,19.1
			C289,19.1,289,19.1,289,19.1c-0.1,0-0.1,0-0.2,0c0,0,0,0,0,0.1C289,19.2,289,19.2,289,19.1z M289.1,24.7L289.1,24.7L289.1,24.7
			L289.1,24.7z M289.1,22.7C289.1,22.7,289.1,22.8,289.1,22.7c0,0.1,0,0.1,0,0.1C289.1,22.8,289.2,22.8,289.1,22.7
			C289.2,22.7,289.2,22.7,289.1,22.7z M289.5,19.5c-0.1,0-0.1-0.1-0.2-0.2c0,0,0,0-0.1,0c0,0,0,0,0,0.1c0,0.1,0.1,0.2,0.1,0.3
			c0,0,0,0,0.1,0c0.1,0,0.1,0,0.2-0.1C289.6,19.6,289.6,19.6,289.5,19.5z M289.6,18.4L289.6,18.4L289.6,18.4L289.6,18.4z
			 M289.8,26.5L289.8,26.5L289.8,26.5L289.8,26.5z M290.1,26.7C290.1,26.6,290.1,26.6,290.1,26.7c-0.1,0-0.1,0-0.1,0
			C290,26.7,290.1,26.7,290.1,26.7C290.1,26.7,290.2,26.7,290.1,26.7z M290.7,52C290.7,52,290.6,51.9,290.7,52
			C290.6,51.9,290.6,51.9,290.7,52C290.6,52,290.6,52,290.7,52C290.6,52,290.7,52,290.7,52z M291,21.8c0,0-0.1,0-0.1,0
			c0,0-0.1,0-0.1,0.1c0,0,0,0,0,0.1C290.8,21.9,290.9,21.9,291,21.8C291,21.9,291,21.9,291,21.8z M291.1,25.3
			C291.1,25.3,291.1,25.3,291.1,25.3C291,25.3,291,25.3,291.1,25.3C291,25.3,291,25.4,291.1,25.3C291.1,25.4,291.1,25.4,291.1,25.3z
			 M291.6,17.9C291.6,17.9,291.5,17.9,291.6,17.9C291.5,18,291.5,18,291.6,17.9C291.6,18,291.6,18,291.6,17.9
			C291.6,18,291.6,17.9,291.6,17.9z M291.7,21.1L291.7,21.1L291.7,21.1L291.7,21.1z M292.3,19.8C292.3,19.8,292.3,19.8,292.3,19.8
			C292.3,19.8,292.3,19.8,292.3,19.8C292.2,19.8,292.3,19.8,292.3,19.8C292.3,19.8,292.3,19.8,292.3,19.8
			C292.3,19.8,292.3,19.8,292.3,19.8c-0.1,0-0.1,0.1-0.1,0.1c0,0,0,0.1,0,0.1c0,0,0,0,0,0C292.2,19.9,292.2,19.9,292.3,19.8
			C292.3,19.8,292.3,19.8,292.3,19.8C292.3,19.8,292.3,19.8,292.3,19.8L292.3,19.8z M292.3,18.8C292.3,18.8,292.3,18.8,292.3,18.8
			c-0.1,0-0.1,0-0.1,0C292.2,18.8,292.2,18.9,292.3,18.8C292.3,18.9,292.3,18.9,292.3,18.8z M293.3,29.7L293.3,29.7L293.3,29.7
			L293.3,29.7z M293.4,50.6L293.4,50.6L293.4,50.6L293.4,50.6z M293.5,43C293.5,43,293.5,43,293.5,43C293.4,43,293.4,43,293.5,43
			C293.5,43.1,293.5,43.1,293.5,43z M294.2,21.9C294.2,21.9,294.2,21.9,294.2,21.9c-0.1-0.1-0.2,0-0.2,0.1c0,0,0,0.1,0,0.1
			C294.1,22.1,294.2,22,294.2,21.9z M294.8,21.2c0,0,0-0.1-0.1-0.1c0,0,0,0,0,0.1C294.7,21.2,294.7,21.3,294.8,21.2
			C294.7,21.3,294.8,21.3,294.8,21.2z M294.9,28.5C294.9,28.5,294.9,28.5,294.9,28.5C294.8,28.5,294.8,28.5,294.9,28.5
			C294.8,28.6,294.9,28.6,294.9,28.5C294.9,28.6,294.9,28.5,294.9,28.5z M295,26.8L295,26.8L295,26.8L295,26.8z M296.7,46.5
			C296.7,46.5,296.6,46.5,296.7,46.5C296.6,46.5,296.6,46.5,296.7,46.5C296.6,46.5,296.6,46.6,296.7,46.5
			C296.7,46.5,296.7,46.5,296.7,46.5z M298.2,38.3L298.2,38.3L298.2,38.3L298.2,38.3z M298.5,27.9C298.5,27.9,298.5,27.8,298.5,27.9
			c-0.1-0.1-0.2,0-0.2,0c0.1,0,0.1,0.1,0.1,0.1C298.5,28,298.5,27.9,298.5,27.9z M299.3,31.8L299.3,31.8L299.3,31.8L299.3,31.8z
			 M300.4,32.6C300.4,32.6,300.4,32.6,300.4,32.6c-0.1-0.1-0.1-0.1-0.1-0.1c-0.1,0-0.1,0.2,0,0.2c0,0,0.1,0,0.1,0
			C300.4,32.7,300.4,32.7,300.4,32.6z M301.2,36.2c0,0-0.1-0.1-0.1-0.1c0,0.1,0,0.1,0,0.2C301.1,36.2,301.1,36.2,301.2,36.2
			C301.2,36.2,301.2,36.2,301.2,36.2z M301.4,36.7C301.4,36.7,301.4,36.6,301.4,36.7C301.3,36.6,301.3,36.7,301.4,36.7
			C301.3,36.7,301.4,36.7,301.4,36.7z M301.6,41.3C301.6,41.3,301.5,41.3,301.6,41.3c-0.1,0-0.1,0-0.1,0.1c0,0,0,0,0.1,0
			C301.6,41.4,301.6,41.4,301.6,41.3z M302,43.6C302,43.6,302,43.6,302,43.6C301.9,43.6,301.9,43.6,302,43.6
			C302,43.7,302,43.7,302,43.6z M302.4,43.1c0,0,0-0.1-0.1-0.1c-0.1,0-0.2,0-0.3,0.1c0,0,0,0.1,0,0.1
			C302.2,43.3,302.3,43.3,302.4,43.1z M303.1,43.6C303.1,43.6,303,43.6,303.1,43.6c-0.1,0-0.1,0-0.1,0
			C302.9,43.7,302.9,43.7,303.1,43.6C303,43.7,303,43.7,303.1,43.6z M303.2,44C303.2,44,303.2,44,303.2,44
			C303.2,44,303.1,44,303.2,44C303.1,44,303.1,44.1,303.2,44C303.2,44.1,303.2,44.1,303.2,44z M243,51L243,51L243,51z M201.6,26.9
			C201.6,26.9,201.6,26.9,201.6,26.9L201.6,26.9z M257,40.1C257,40.1,257,40.1,257,40.1C257,40.1,257,40.1,257,40.1
			C257,40.1,257,40.1,257,40.1z M202.9,27.9C202.9,27.9,202.9,27.9,202.9,27.9L202.9,27.9z M239.5,14.4c0,0,0-0.1,0-0.1
			C239.5,14.3,239.5,14.3,239.5,14.4z"/>
	</g>
</g>
<g>
	<g transform="translate(36.238514, 229.834375)">
		<g>
			<path class="st2" d="M55.4-52l-2.4-7.9H33.6L31.2-52H12.9l20.3-55.8h20.8L74.4-52H55.4z M37.3-72.3h12.1l-5.8-19.9h-0.3
				L37.3-72.3z"/>
		</g>
	</g>
</g>
<g>
	<g transform="translate(76.5674, 229.834375)">
		<g>
			<path class="st2" d="M63.6-93.5V-52H45.7v-41.5H27.4v-14.3h54.5v14.3H63.6z"/>
		</g>
	</g>
</g>
<g>
	<g transform="translate(113.494798, 229.834375)">
		<g>
			<path class="st2" d="M81.4-52v-21.1H61.7V-52H43.8v-55.8h17.9v20.4h19.7v-20.4h17.9V-52H81.4z"/>
		</g>
	</g>
</g>
<g>
	<g transform="translate(157.164441, 229.834375)">
		<g>
			<path class="st2" d="M58.4-107.8h17.9v41.5h28.6V-52H58.4V-107.8z"/>
		</g>
	</g>
</g>
<g>
	<g transform="translate(190.751081, 229.834375)">
		<g>
			<path class="st2" d="M69.6-107.8h48.2v13.4H87.5v7.7h25.9v12.8H87.5v8.5h30.9V-52H69.6V-107.8z"/>
		</g>
	</g>
</g>
<g>
	<g transform="translate(227.678475, 229.834375)">
		<g>
			<path class="st2" d="M114-93.5V-52H96.1v-41.5H77.7v-14.3h54.5v14.3H114z"/>
		</g>
	</g>
</g>
<g>
	<g transform="translate(264.605882, 229.834375)">
		<g>
			<path class="st2" d="M95-52v-55.8h17.9V-52H95z"/>
		</g>
	</g>
</g>
<g>
	<g transform="translate(281.306549, 229.834375)">
		<g>
			<path class="st2" d="M126.3-108.7c8.3,0,14.8,2.1,19.6,6.2c4.8,4.1,7.2,10,7.2,17.7h-17.1c0-3.2-0.9-5.8-2.6-7.7
				c-1.7-1.9-4.1-2.9-7.2-2.9c-3.6,0-6.3,1.1-8,3.4c-1.7,2.3-2.5,5.4-2.5,9.5v5.2c0,4,0.8,7.1,2.5,9.4c1.7,2.3,4.3,3.4,7.8,3.4
				c3.5,0,6.1-0.9,7.9-2.7c1.8-1.8,2.7-4.3,2.7-7.5h16.5c0,7.6-2.3,13.4-7,17.5c-4.7,4.1-11.3,6.1-19.8,6.1
				c-9.5,0-16.7-2.4-21.6-7.3c-4.9-4.9-7.3-12-7.3-21.6c0-9.5,2.4-16.7,7.3-21.5C109.6-106.3,116.8-108.7,126.3-108.7z"/>
		</g>
	</g>
</g>
<g>
	<g transform="translate(85.443457, 195.961652)">
		<g>
			<path class="st1" d="M68.8-143.8l4.8,1.5l-0.1,1l-4.9-0.5L68.8-143.8z M49.9-143.9l2.7,2.3l9.1-1l0.9,1.1l1,0.1l3-0.6
				c11.1,1.2,19.1,6.7,24,16.5c1.3,0.2,1.8,1.9,1.5,5.1l-0.8,6.9l-2-0.2l0.1-1l1.4-2.9l-0.9-1.1l1-0.9l-0.9-1.1l-1.9-0.2
				c-0.4,3.8-4.2,7.7-11.3,11.7l-0.1,1l1,0c2.5,0.3,5.9-0.9,10.4-3.8l-0.2,2l-5.6,5.4c3.7,0.4,9,6.3,16,17.6
				C97.6-79.6,86.8-72.1,66-64.5c-8.9,4.3-15.7,6.2-20.6,5.7L43.7-61l-1-0.1c-0.2,2-1.6,2.8-4.2,2.5c-0.2,1.8-0.9,2.8-2,2.8h-0.4
				c-1.3-0.2-1.7-2.5-1.2-7.1L34-63l-1.5,4.8l-1-0.1c0.7-6.5,0.1-9.9-1.9-10.1l-0.5-4.1l1.1-0.9l-0.9-1.1l9.6-41.8l-0.9-1.1l1,0.1
				l-0.9-1l2.6-14.7l0.1-1l-1.2-7.1l1,0.1c3.7-2,6.6-3,8.7-3C49.4-144,49.7-144,49.9-143.9z M73.4-131.4l-0.1,1l7.8,1.9
				c0.1-1.3-0.8-2.1-2.8-2.3L73.4-131.4z M54.3-121.5l0.3,7l9-1l-0.2,2l14.6-6.4l-0.1,1l-7.5,5.1c8.2-2.2,12.6-6.1,13.2-11.5l-2-0.2
				c-0.4,3.3-1.6,4.8-3.5,4.6l0.2-2l-1-0.1l1.3-2.9l0.9,1.1l1,0.2l0.1-1c-2.4-2.3-6.2-3.7-11.5-4.2C60-130.8,55.1-128.1,54.3-121.5z
				 M77.4-122.9l-0.1,1l-2.2,1.7l-1-0.1L77.4-122.9z M72.9-99.5l-0.1,0.9l9.7,2.1l1,0.1l0.1-1l-3.8-1.4L72.9-99.5z M50.6-96l-3,17.6
				l0.9,1.1l1,0.1c4.7,0.5,15.5-3.6,32.2-12.4l2.2-1.8c-0.1-2.7-2.6-4.3-7.5-4.8l-7.9-0.9L50.6-96z M86-92.2l-2.4,3.8l4.2-2.5L87-92
				L86-92.2z M92.5-87.5c-0.2,2.1-6.8,7-19.6,14.8c14.6-5.8,22-10.3,22.4-13.5l-1-0.1l-0.8-1.1L92.5-87.5z"/>
		</g>
	</g>
</g>
<g>
	<g transform="translate(132.659599, 195.961652)">
		<g>
			<path class="st1" d="M88.6-141.2c7.8,0,15,2.3,21.8,6.9l-1,1v1l4,5.9h-2l-1-1h-1l3,21.8h1c0-3.3,0.7-5,2-5v4
				c0,3.7-3.3,12.3-9.9,25.8h1c-4.7,6.4-11.6,12.3-20.8,17.8l-4.9,1h-1C64-62,54.1-68.2,50-80.8l-4-6l1-1l-1-6.9v-2
				c0-5.5,5.3-15,15.8-28.7v1C57-117.8,53-110.5,50-102.5v1h1c2.4-9.7,11.3-21.9,26.7-36.6l-6.9,4h-1
				C69.8-137.2,76.1-139.6,88.6-141.2z M83.6-124.3l-1-1v1l1,1l-6.9,6c-5.5,0-10.8,9.2-15.9,27.7c0,5.3,3,9.9,8.9,13.9h1
				c7.2,0,15.5-7.6,24.8-22.8c3.3-7.2,5-12.5,5-15.8v-7.9c0-1.8-3.3-3.1-9.9-4h-1l-1,1h-1v-1L83.6-124.3z M112.3-121.4h2v5h-2
				V-121.4z M61.9-110.5l-3,5.9h1l3-5.9H61.9z M100.5-104.5l-4,9.9h3l3-6.9l-1-3H100.5z M107.4-100.6l-1,3v2h1l1-4v-1H107.4z
				 M49-96.6v7.9h1v-7.9H49z M95.5-93.6l-4,4.9h1l4-4.9H95.5z M63.8-71.9v1l4.9,3v-1L63.8-71.9z"/>
		</g>
	</g>
</g>
<g>
	<g transform="translate(182.059236, 195.961652)">
		<g>
			<path class="st1" d="M75.9-141.4c1.3,0,2,2,2,5.9h2l3-2l1,1L78.9-81c4.2-2,15.4-4.3,33.6-6.9h1v1c-23.1,3.8-34.6,6.8-34.6,8.9
				l10.9-3v1l18.8-4v1l1-1h1l1,1l4.9-1h4l6.9,1v1c0,2-5,3.6-14.9,5v1l1-1h1l6.9,1l1-1v3l-32.7,7.9L69-58.3h-3l-4-4.9h-1v-1
				c0-1.7,1.3-2.7,4-3v-3l-3-4l4-44.5h1v4l-1,6.9h2l-2,12.9l1,1l-1,4v4.9h1l4-52.5c1.3,0,2-1,2-3l1-1H75.9z"/>
		</g>
	</g>
</g>
<g>
	<g transform="translate(223.248932, 195.961652)">
		<g>
			<path class="st1" d="M118.8-141.2c7.8,0,15,2.3,21.8,6.9l-1,1v1l4,5.9h-2l-1-1h-1l3,21.8h1c0-3.3,0.7-5,2-5v4
				c0,3.7-3.3,12.3-9.9,25.8h1c-4.7,6.4-11.6,12.3-20.8,17.8l-4.9,1h-1c-15.7,0-25.6-6.3-29.7-18.8l-4-6l1-1l-1-6.9v-2
				c0-5.5,5.3-15,15.8-28.7v1c-4.9,6.5-8.8,13.8-11.9,21.8v1h1c2.4-9.7,11.3-21.9,26.7-36.6l-6.9,4h-1
				C100-137.2,106.2-139.6,118.8-141.2z M113.8-124.3l-1-1v1l1,1l-6.9,6c-5.5,0-10.8,9.2-15.9,27.7c0,5.3,3,9.9,8.9,13.9h1
				c7.2,0,15.5-7.6,24.8-22.8c3.3-7.2,5-12.5,5-15.8v-7.9c0-1.8-3.3-3.1-9.9-4h-1l-1,1h-1v-1L113.8-124.3z M142.5-121.4h2v5h-2
				V-121.4z M92.1-110.5l-3,5.9h1l3-5.9H92.1z M130.7-104.5l-4,9.9h3l3-6.9l-1-3H130.7z M137.6-100.6l-1,3v2h1l1-4v-1H137.6z
				 M79.2-96.6v7.9h1v-7.9H79.2z M125.7-93.6l-4,4.9h1l4-4.9H125.7z M94-71.9v1l4.9,3v-1L94-71.9z"/>
		</g>
	</g>
</g>
</svg>
